<svg width="366" height="248" viewBox="0 0 366 248" fill="none" xmlns="http://www.w3.org/2000/svg">
<path d="M247.996 47.4921C229.737 31.6985 206.383 23 182.23 23C158.076 23 134.512 31.7758 116.218 47.7031C107.608 55.1991 100.38 64.0171 94.7455 73.9039C92.9982 76.9558 91.3912 80.1694 89.9456 83.4533C84.3599 96.2443 81.5249 109.858 81.5249 123.908C81.5249 179.551 126.702 224.816 182.23 224.816C198.391 224.816 214.46 220.885 228.698 213.452C242.017 206.498 253.792 196.477 262.823 184.41L263.757 183.159C276.297 165.853 282.928 145.362 282.928 123.915C282.928 94.5496 270.199 66.6963 247.996 47.4992V47.4921Z" fill="#DCE6F1"/>
<path d="M196.122 155.728L194.697 165.713C194.697 165.713 190.992 170.424 187.455 170.136C183.926 169.848 182.592 173.272 183.869 174.418C185.154 175.557 184.726 181.267 184.726 181.267C184.726 181.267 179.884 185.402 178.031 189.256C176.179 193.109 171.765 194.389 168.916 194.677C166.067 194.966 166.207 196.105 168.628 197.244C171.049 198.383 166.635 201.667 166.635 201.667C166.635 201.667 167.772 203.376 170.052 203.523C172.333 203.664 170.193 210.232 170.193 210.232C170.193 210.232 174.747 214.943 170.193 215.224C165.639 215.513 158.376 202.096 157.948 201.386C157.52 200.675 158.516 194.677 157.948 194.677C157.379 194.677 154.242 189.685 154.242 189.685C154.242 189.685 156.095 182.266 154.242 181.978C152.39 181.689 154.242 165.143 154.242 165.143C154.242 165.143 151.393 161.29 147.548 160.432C143.703 159.574 144.839 156.009 144.839 156.009C144.839 156.009 137.576 147.163 136.58 146.445C135.584 145.735 137.864 140.883 138.004 138.738C138.145 136.594 141.422 135.743 143.127 134.885C143.555 134.674 143.703 134.111 143.696 133.387C143.632 130.145 140.854 127.607 137.612 127.607H134.587C133.591 127.607 128.04 121.046 127.752 120.188C127.465 119.33 123.198 119.33 122.202 119.19C121.205 119.049 122.202 116.194 122.202 116.194H118.784C118.784 116.194 118.644 116.904 116.791 117.333C114.939 117.762 110.953 115.477 108.251 112.341C105.662 109.331 108.034 107.763 108.237 107.636C106.799 108.157 102.413 99.5004 102.413 99.5004C102.413 99.5004 102.413 95.0773 101.844 93.7905C101.276 92.5037 99.7112 94.0788 99.7112 94.0788L100.139 100.07C100.139 100.07 102.42 103.354 103.416 104.205C104.413 105.056 103.557 107.629 101.992 107.629C100.427 107.629 96.4411 101.069 96.4411 101.069L95.6832 92.0325C91.3115 91.6528 92.4553 85.1835 92.4553 85.1835L95.1008 73.8972C100.75 63.9823 108.034 55.1221 116.581 47.6893C121.002 45.5235 124.77 43.6108 125.647 42.992C128.054 41.2833 134.18 45.1297 134.608 45.2774C135.036 45.418 137.029 45.847 139.45 47.2745C141.871 48.7019 143.576 46.5642 143.155 45.2774C142.727 43.9906 138.173 45.1368 137.029 44.8485C135.892 44.5601 138.026 43.7093 138.026 42.5631C138.026 41.4169 135.036 42.2748 133.184 42.1341C131.331 41.9935 134.748 40.1371 139.31 38.7096C143.864 37.2821 145.857 40.7067 146.425 41.4239C146.987 42.1341 148.706 41.8529 149.85 42.1341C150.986 42.4224 152.558 39.8488 154.404 39.7152C156.256 39.5816 154.264 42.2748 153.12 43.1327C151.976 43.9906 148.565 43.8429 147.422 44.1312C146.285 44.4195 148.558 46.6978 147.99 47.4151C147.422 48.1253 152.404 47.844 152.972 46.7049C153.541 45.5657 155.681 45.9947 157.955 45.9947C160.228 45.9947 158.242 43.5686 156.818 42.5701C155.393 41.5716 158.811 40.2847 159.098 39.8628C159.386 39.4339 162.656 40.1441 164.368 39.8769C166.074 39.6167 163.512 41.9935 162.235 43.8499C160.951 45.7063 164.368 45.418 165.653 45.7063C166.937 45.9947 167.645 42.2818 168.93 40.7137C170.214 39.1456 174.34 40.0035 180.178 41.5716C186.017 43.1397 184.024 46.8525 184.88 46.7049C185.736 46.5572 187.589 48.4136 187.469 49.7005C187.357 50.9873 184.031 51.1279 183.034 50.27C182.038 49.4122 181.61 52.5554 180.045 53.125C178.48 53.6946 173.351 51.6975 172.214 50.8396C171.077 49.9817 177.764 48.7019 178.052 46.1283C178.34 43.5616 172.073 44.7008 170.789 45.418C169.505 46.1353 167.512 49.2715 165.947 48.5543C164.382 47.844 164.095 49.6934 165.239 50.6146C166.375 51.5428 165.807 51.5499 164.242 51.2686C162.677 50.9803 163.386 52.2671 161.821 53.4063C160.256 54.5454 159.4 51.2686 158.691 50.692C157.983 50.1224 155.983 52.8297 152.993 53.5469C150.004 54.2642 149.008 55.8323 146.439 59.1092C143.864 62.3931 154.706 62.3931 155.134 62.822C155.562 63.2509 154.846 67.1044 155.842 68.2436C156.839 69.3828 158.123 65.1074 158.123 64.3901C158.123 63.6729 161.112 62.822 164.67 62.822C168.228 62.822 165.526 56.9715 165.239 54.9744C164.951 52.9773 168.944 53.2656 169.793 52.689C170.649 52.1194 174.494 55.2557 174.494 55.2557C174.494 55.2557 174.494 58.2513 175.919 59.1092C177.343 59.967 179.477 56.5425 181.441 56.1136C183.406 55.6846 181.47 62.3931 182.466 62.3931C183.462 62.3931 185.175 66.1059 185.315 67.1044C185.455 68.103 184.887 69.5304 183.034 70.2407C181.182 70.9509 185.596 72.0971 185.596 72.0971C185.596 72.0971 187.876 73.0956 185.168 74.3825C182.459 75.6693 179.898 72.526 179.47 71.8158C179.042 71.1056 181.463 70.2477 181.434 68.6796C181.406 67.1115 179.898 67.9694 179.182 69.5375C178.473 71.1056 175.905 70.536 173.203 68.3983C170.495 66.2606 169.498 70.2547 169.498 70.2547C169.498 70.2547 173.056 71.3939 173.203 72.526C173.344 73.6511 170.073 72.8214 168.081 72.5401C166.088 72.2518 163.954 76.6749 163.379 77.9617C162.811 79.2485 156.256 83.6716 153.555 85.1905C150.846 86.7094 151.702 89.9441 151.702 89.9441C151.702 89.9441 147.857 93.0803 146.425 93.6569C144.987 94.2265 142.018 97.651 142.587 99.6481C143.155 101.645 141.45 102.644 138.741 101.645C136.033 100.647 139.169 97.0814 139.169 97.0814C139.169 97.0814 134.187 97.7917 130.482 96.7931C126.777 95.7946 122.938 99.0785 119.521 103.783C116.104 108.494 119.661 110.632 120.945 112.917C122.23 115.203 126.496 112.059 126.496 112.059C126.496 112.059 131.198 108.635 132.194 110.062C133.191 111.49 130.201 115.343 130.201 115.343C130.201 115.343 136.608 115.343 135.471 119.337C134.334 123.332 134.819 125.336 140.025 125.758C146.425 126.278 147.001 122.621 148.713 120.624C150.425 118.627 155.835 122.91 156.832 124.407C157.828 125.905 160.537 124.049 163.667 123.05C166.796 122.052 169.505 128.901 169.505 128.901C169.505 128.901 171.358 129.189 174.915 129.899C178.473 130.61 179.042 138.035 179.042 138.035C179.042 138.035 182.171 139.603 183.883 141.46C185.596 143.316 193.848 141.319 193.848 141.319C193.848 141.319 194.276 144.174 198.978 146.881C203.679 149.596 196.129 155.728 196.129 155.728H196.122Z" fill="#9DB3C8"/>
<path d="M231.715 63.6236C231.715 63.6236 227.729 61.3383 228.655 59.6998C229.582 58.0614 231.785 56.8449 232.36 57.9137C232.929 58.9826 233.069 63.1947 234.423 63.6236C235.778 64.0526 238.908 66.4083 238.199 66.6896C237.49 66.9779 236.915 69.4742 235.778 69.4039C234.641 69.3335 230.15 70.0438 229.939 69.0452C229.729 68.0467 228.732 65.909 230.227 65.909C231.722 65.909 233.013 64.4956 231.722 63.6236H231.715Z" fill="#9DB3C8"/>
<path d="M228.155 62.0555C228.155 62.0555 223.741 63.0541 223.313 65.0511C222.885 67.0482 222.457 68.764 225.166 67.7654C227.875 66.7669 229.292 64.7699 229.292 64.7699C229.292 64.7699 229.72 62.9838 229.292 62.7728C228.864 62.5618 228.155 62.0626 228.155 62.0626V62.0555Z" fill="#9DB3C8"/>
<path d="M283.291 123.908C283.291 146.045 276.175 166.515 264.12 183.152C264.12 183.152 264.115 183.152 264.106 183.152C260.927 185.452 258.681 186.781 257.944 186.619C253.839 185.691 256.204 185.262 256.204 181.12C256.204 176.978 253.923 177.836 252.359 175.558C250.794 173.272 252.787 165.854 252.787 165.854C249.082 164.996 249.938 160.003 249.938 160.003C253.643 151.016 252.927 151.586 248.801 145.447C244.675 139.308 246.948 132.473 246.948 132.473L240.822 131.749C240.822 131.749 237.833 127.895 234.696 129.752C231.566 131.608 225.581 131.039 225.581 131.039C225.581 131.039 221.876 132.607 220.17 132.466C218.458 132.326 211.911 122.903 210.704 122.052C209.49 121.194 210.627 112.917 211.483 112.917C212.339 112.917 213.764 109.781 212.192 109.493C210.627 109.205 210.767 105.78 210.767 105.78C209.771 103.642 219.735 98.931 221.447 97.9325C223.153 96.934 221.447 93.9384 221.447 92.5109C221.447 91.0834 226.002 89.3747 226.226 89.3747C226.451 89.3747 232.556 90.2326 233.391 89.8036C234.226 89.3747 234.549 88.2355 242.808 87.6659C251.067 87.0963 248.078 91.5194 247.51 92.5179C246.941 93.5165 251.355 93.6571 252.92 93.6571C254.485 93.6571 257.902 95.6542 259.046 96.5121C260.183 97.3699 260.183 93.0875 262.323 92.089C264.456 91.0905 268.162 94.6556 269.726 95.5135C271.291 96.3714 277.13 95.5135 277.13 95.5135C277.13 95.5135 274.814 92.8625 275.845 90.6615C276.884 88.4605 272.611 86.9698 271.572 87.5253C270.533 88.0878 268.723 86.5197 267.298 85.8095C265.874 85.0993 267.298 80.0996 267.298 80.0996L265.446 81.3864C265.446 81.3864 263.881 80.8168 263.453 84.5227C263.025 88.2355 261.172 86.0908 259.467 84.382C257.762 82.6662 259.467 79.8183 259.467 79.8183C259.467 79.8183 257.902 79.3894 256.19 76.6821C254.485 73.9678 251.917 74.8257 250.211 74.9733C248.506 75.114 251.348 79.2558 252.492 79.537C253.629 79.8253 257.194 82.5326 257.194 82.5326C257.194 82.5326 255.629 82.9616 256.057 83.8195C256.485 84.6774 255.488 86.6744 254.92 86.5338C254.352 86.3931 252.927 87.5393 252.927 87.5393C252.927 87.5393 247.229 85.9642 252.218 84.9657C257.201 83.9671 248.941 80.1137 247.804 79.6847C246.668 79.2558 246.099 76.5485 246.099 76.5485C246.099 76.5485 244.106 78.8338 243.966 79.2628C243.826 79.6917 241.973 79.1222 240.261 78.5526C238.556 77.983 236.528 82.5467 236.528 82.5467C236.528 82.5467 232.858 86.9698 231.58 87.3987C230.296 87.8277 225.174 87.2581 223.89 86.5408C222.605 85.8306 223.181 82.4061 223.005 80.5496C222.83 78.6932 225.167 78.2643 226.879 77.6947C228.584 77.1251 231.58 78.1236 232.275 78.5526C232.977 78.9815 233.994 76.9845 233.412 75.6976C232.823 74.4108 232.275 74.6991 232.275 74.6991C232.275 74.6991 232.57 72.2731 232.289 70.9862C232.001 69.6994 237.7 69.4181 238.303 69.601C238.899 69.7768 240.261 65.1357 241.405 64.4255C242.541 63.7153 246.955 65.1357 249.236 65.0724C251.517 65.0021 248.38 59.8618 248.38 59.8618C248.38 59.8618 246.527 61.1486 245.103 61.1486C243.678 61.1486 243.966 59.2922 244.148 58.153C244.338 57.0139 241.685 58.0124 241.257 57.5342C240.829 57.056 241.685 56.8662 240.261 56.4372C238.836 56.0083 242.254 52.4431 244.675 52.5837C246.941 52.7174 248.204 48.1044 248.359 47.5067C269.754 66.0077 283.291 93.3829 283.291 123.922V123.908Z" fill="#9DB3C8"/>
<path opacity="0.7" d="M185.768 37.97L263.345 78.84L288.042 155.174L221.062 197.457H124.897L84.8591 137.961L97.5814 72.4789L185.768 37.97ZM185.768 37.97L161.193 121.123L108.059 78.84" stroke="#F6FBFF" stroke-width="1.36885"/>
<path opacity="0.7" d="M170.547 120.749L199.802 97.5254L253.242 94.9305L224.43 189.599L162.689 128.607L129.761 194.464L103.194 79.9631" stroke="white" stroke-width="1.36885"/>
<path opacity="0.7" d="M86.1853 139.809L155.035 123.719L285.252 152.905L226.815 110.693L186.878 37.97L223.885 188.453L90.3013 141.68" stroke="white" stroke-width="1.36885"/>
<path opacity="0.7" d="M102.073 74.3501L257.359 83.7047L129.762 196.334" stroke="white" stroke-width="1.36885"/>
<mask id="mask0_2751_9065" style="mask-type:alpha" maskUnits="userSpaceOnUse" x="114" y="186" width="29" height="28">
<circle cx="128.761" cy="199.965" r="13.9599" fill="#C4C4C4"/>
</mask>
<g mask="url(#mask0_2751_9065)">
<circle cx="128.761" cy="199.965" r="13.9599" fill="#FCE2BA"/>
<path d="M129.014 194.58V194.61C128.962 194.772 128.904 194.934 128.836 195.093C128.832 195.107 128.827 195.121 128.82 195.134C128.82 195.134 128.82 195.159 128.82 195.172L128.803 195.208C128.419 196.066 127.83 196.817 127.089 197.394C126.349 197.972 125.478 198.358 124.553 198.521C124.204 198.583 123.849 198.611 123.494 198.603C122.158 198.583 120.871 198.096 119.854 197.227C118.837 196.358 118.154 195.161 117.922 193.842C117.906 193.752 117.895 193.661 117.884 193.568C117.884 193.459 117.868 193.346 117.851 193.228C117.85 193.218 117.85 193.208 117.851 193.198C117.816 192.612 117.871 192.023 118.016 191.454C118.163 190.872 118.401 190.317 118.719 189.809C119.334 188.823 120.234 188.049 121.298 187.587C122.363 187.125 123.542 186.998 124.68 187.222C125.818 187.446 126.862 188.011 127.673 188.842C128.484 189.673 129.024 190.731 129.222 191.876C129.238 191.972 129.252 192.068 129.263 192.15C129.274 192.233 129.282 192.315 129.29 192.397C129.351 193.132 129.266 193.871 129.039 194.572L129.014 194.58Z" fill="#DE9885"/>
<path d="M117.817 196.473L118.378 196.665C118.422 196.917 118.74 198.058 118.797 198.269C119.049 199.19 119.673 199.533 120.986 199.64C123.252 199.846 121.64 203.923 121.64 203.923L129.626 202.533L129.954 202.563C127.026 200.016 128.668 195.354 129.015 194.572C129.015 194.547 128.797 195.17 128.805 195.145L125.321 194.531L117.817 193.209V193.239C117.834 193.357 117.845 193.47 117.85 193.579C117.868 194.265 117.73 194.946 117.448 195.57C117.408 195.653 117.386 195.744 117.383 195.835C117.38 195.927 117.397 196.019 117.432 196.104C117.467 196.189 117.519 196.266 117.585 196.329C117.652 196.393 117.731 196.442 117.817 196.473Z" fill="#DE9885"/>
<path d="M121.632 203.935C119.99 208.564 115.337 215.052 115.337 231.05H134.141C134.141 215.875 134.688 207.557 129.945 202.574L121.632 203.935Z" fill="#F1BA39"/>
<path d="M132.09 208.747C128.259 208.747 125.835 206.978 124.513 203.435C123.968 201.878 123.617 200.26 123.47 198.617C123.357 197.606 123.288 196.518 123.262 195.353C123.262 194.967 123.246 194.569 123.246 194.163C123.246 193.551 123.254 192.92 123.27 192.271C123.161 192.271 120.444 191.92 118.695 189.822C119.31 188.837 120.21 188.062 121.274 187.6C122.339 187.139 123.518 187.011 124.656 187.235C125.794 187.459 126.838 188.024 127.649 188.855C128.46 189.686 129 190.745 129.198 191.89C129.214 191.986 129.228 192.082 129.239 192.164C129.239 192.211 129.239 192.257 129.239 192.301C129.239 192.345 129.239 192.375 129.255 192.411C129.42 193.801 131.075 196.214 135.051 198.562C139.616 200.97 138.842 208.747 132.09 208.747Z" fill="#AE7F2C"/>
<path d="M124.757 208.243L122.039 218.979L114.166 212.828L109.878 217.704L119.683 225.604C120.384 226.169 121.21 226.556 122.092 226.733C122.974 226.911 123.886 226.872 124.749 226.621C125.613 226.371 126.404 225.915 127.055 225.293C127.706 224.671 128.198 223.901 128.489 223.049L132.228 212.129" fill="#F0BA3E"/>
</g>
<mask id="mask1_2751_9065" style="mask-type:alpha" maskUnits="userSpaceOnUse" x="79" y="50" width="39" height="39">
<circle cx="98.8111" cy="69.8177" r="19.181" fill="#C4C4C4"/>
</mask>
<g mask="url(#mask1_2751_9065)">
<circle cx="98.8111" cy="69.8177" r="19.181" fill="#D6CEC2"/>
<path d="M90.0292 79.5168V83.0851L87.179 92.1839H92.2005L95.9693 79.5168H90.0292Z" fill="#DE9885"/>
<path d="M112.618 83.0841H111.599L111.336 96.93C110.774 95.8546 109.927 94.9552 108.888 94.3304C107.849 93.7056 106.658 93.3797 105.446 93.3882H88.5735L92.5371 85.1755C93.6082 83.0287 91.4265 81.3646 91.5791 79.4868L87.8235 79.5395L90.3422 71.5959C91.1317 69.5203 92.6266 68.7134 94.3609 68.476C94.7869 68.4215 95.2159 68.395 95.6453 68.3968H106.102C110.502 68.4786 112.131 72.5902 112.289 75.5176C112.447 78.445 112.618 83.0841 112.618 83.0841Z" fill="#4684C4"/>
<path d="M106.101 68.3995C105.668 69.6091 104.875 70.6561 103.829 71.399C102.782 72.1418 101.534 72.5447 100.251 72.553C98.9689 72.5614 97.7149 72.1748 96.6591 71.4456C95.6032 70.7164 94.7963 69.6798 94.3477 68.476C94.7736 68.4215 95.2026 68.395 95.632 68.3968H106.101V68.3995Z" fill="#DE9885"/>
<path d="M102.304 61.4508C102.304 61.4693 102.304 61.485 102.304 61.5035C102.057 62.3786 101.6 63.1795 100.971 63.8354C100.343 64.4913 99.5633 64.9821 98.7008 65.2644L98.5955 65.2961C97.2151 65.7165 95.7253 65.5776 94.4459 64.9095C93.1664 64.2413 92.1995 63.0971 91.7527 61.7224C91.7317 61.6591 91.7132 61.5932 91.6948 61.5299C91.6553 61.398 91.6238 61.2662 91.5948 61.1317C91.5961 61.1274 91.5961 61.1228 91.5948 61.1185C91.5543 60.9137 91.5253 60.7069 91.508 60.4988L91.4948 60.3089C91.4404 59.5029 91.5625 58.6949 91.8526 57.9413C92.1428 57.1877 92.5939 56.5068 93.1744 55.9463C93.7549 55.3859 94.4507 54.9594 95.213 54.6969C95.9754 54.4345 96.7858 54.3422 97.5874 54.4268C98.3891 54.5113 99.1625 54.7705 99.8537 55.1863C100.545 55.602 101.137 56.1642 101.588 56.8335C102.039 57.5027 102.339 58.2628 102.467 59.0604C102.594 59.858 102.545 60.6739 102.325 61.4508H102.304Z" fill="#DE9885"/>
<path d="M96.7875 69.2946C96.7875 69.2946 97.3375 66.863 95.4031 66.8155C93.4687 66.7681 93.3687 66.7418 92.8555 65.0328C92.6107 64.0596 91.9028 64.4261 91.7238 63.8722C91.5448 63.3184 91.987 62.4771 91.5764 61.1189L102.301 61.4513C101.656 64.0886 102.146 66.6441 105.175 69.2946H96.7875Z" fill="#DE9885"/>
<path d="M107.179 66.4958H98.5803V60.8837L95.9484 60.6673V58.3966C93.9956 60.9285 91.4743 60.5065 91.4743 60.5065L91.4612 60.3166C91.406 59.064 91.7765 57.8299 92.5122 56.8158C93.2479 55.8017 94.3051 55.0677 95.5111 54.7339C96.717 54.4001 98.0004 54.4861 99.1512 54.978C100.302 55.47 101.252 56.3386 101.846 57.4419L107.179 66.4958Z" fill="#E7592F"/>
<path d="M97.2588 62.2018C97.9868 62.2018 98.5769 61.6104 98.5769 60.8809C98.5769 60.1514 97.9868 59.5601 97.2588 59.5601C96.5308 59.5601 95.9407 60.1514 95.9407 60.8809C95.9407 61.6104 96.5308 62.2018 97.2588 62.2018Z" fill="#DE9885"/>
<path d="M72.7764 81.569H88.4121L91.573 93.3895H75.9346L72.7764 81.569Z" fill="#394450"/>
<path d="M105.838 83.2429V85.1787L98.0268 89.8837C97.8695 89.978 97.6923 90.0339 97.5095 90.0471C97.3267 90.0604 97.1434 90.0307 96.9741 89.9602L96.3556 89.6965C96.1689 89.6178 95.9631 89.5962 95.7641 89.6342C95.5652 89.6722 95.3818 89.7682 95.2371 89.9101L93.1316 91.9592H98.44L109.438 88.9421C110.35 88.6914 111.153 88.1479 111.726 87.3951C112.299 86.6423 112.61 85.7219 112.61 84.7752V83.0768L105.838 83.2429Z" fill="#DE9885"/>
<path d="M82.1746 88.9856C83.0057 88.9856 83.6795 88.3104 83.6795 87.4775C83.6795 86.6447 83.0057 85.9695 82.1746 85.9695C81.3435 85.9695 80.6697 86.6447 80.6697 87.4775C80.6697 88.3104 81.3435 88.9856 82.1746 88.9856Z" fill="#74899F"/>
</g>
<mask id="mask2_2751_9065" style="mask-type:alpha" maskUnits="userSpaceOnUse" x="270" y="140" width="26" height="26">
<circle cx="282.544" cy="153.036" r="12.4933" fill="#C4C4C4"/>
</mask>
<g mask="url(#mask2_2751_9065)">
<circle cx="282.544" cy="153.036" r="12.4933" fill="#FCE2BA"/>
<path d="M286.406 150.124C286.285 151.046 285.896 151.911 285.288 152.613L285.204 152.709C284.519 153.463 283.613 153.978 282.616 154.178C281.619 154.379 280.584 154.255 279.662 153.825C278.74 153.395 277.98 152.681 277.492 151.787C277.004 150.893 276.814 149.866 276.949 148.856C276.949 148.787 276.967 148.717 276.983 148.648C277.012 148.542 277.035 148.435 277.052 148.326C277.088 148.18 277.131 148.039 277.179 147.902C277.513 146.946 278.144 146.122 278.98 145.55L279.048 145.505L279.16 145.429C279.928 144.955 280.816 144.709 281.718 144.719C282.621 144.729 283.502 144.996 284.26 145.487C285.019 145.978 285.622 146.674 286.002 147.495C286.382 148.315 286.522 149.227 286.406 150.124Z" fill="#DE9885"/>
<path d="M283.876 154.251C282.949 155.453 282.799 156.4 284.185 158.658L278.038 157.874C278.038 157.874 279.404 154.967 277.906 154.205C276.408 153.443 276.347 153.384 276.588 151.858C276.761 151.009 276.071 151.027 276.133 150.528C276.192 150.072 276.736 149.629 276.98 148.648C277.009 148.542 277.032 148.435 277.048 148.326L280.436 150.09L280.584 150.165L282.359 151.091L282.475 151.153L285.278 152.611L285.194 152.706C284.67 153.311 284.212 153.797 283.869 154.249L283.876 154.251Z" fill="#DE9885"/>
<path d="M286.405 150.125C286.284 151.046 285.895 151.912 285.287 152.614L285.203 152.709C284.679 153.314 284.222 153.8 283.878 154.252C283.677 154.185 283.484 154.096 283.304 153.985C282.498 153.492 282.097 152.602 282.487 151.156C282.523 151.019 282.614 150.754 282.664 150.608L280.595 150.168L280.443 150.127C280.444 150.115 280.444 150.103 280.443 150.09C280.398 149.414 280.505 148.737 280.757 148.108C280.196 148.523 279.494 148.699 278.803 148.599C278.978 148.515 279.132 148.393 279.253 148.242C279.375 148.09 279.461 147.914 279.505 147.725C278.761 147.996 277.958 148.057 277.182 147.903C276.879 147.854 276.58 147.778 276.29 147.675C276.765 147.541 277.21 147.317 277.601 147.015C276.754 147.257 276.42 146.831 276.42 146.831C277.287 146.623 278.526 145.852 278.983 145.553L279.051 145.507L279.163 145.432C279.932 144.958 280.819 144.712 281.722 144.722C282.624 144.732 283.506 144.998 284.264 145.489C285.022 145.981 285.626 146.677 286.005 147.497C286.385 148.318 286.525 149.23 286.409 150.127L286.405 150.125Z" fill="#61382D"/>
<path d="M281.571 151.419C282.2 151.419 282.711 150.908 282.711 150.277C282.711 149.646 282.2 149.134 281.571 149.134C280.941 149.134 280.43 149.646 280.43 150.277C280.43 150.908 280.941 151.419 281.571 151.419Z" fill="#DE9885"/>
<path d="M290.248 177.974L293.41 173.696C293.785 173.189 294.028 172.596 294.119 171.971C294.21 171.346 294.146 170.709 293.932 170.115L290.66 161.038C290.288 160.006 289.607 159.115 288.71 158.486C287.814 157.856 286.746 157.519 285.652 157.52H275.853C274.675 157.52 273.529 157.912 272.597 158.635C271.665 159.358 270.999 160.371 270.704 161.514L268.127 171.497C267.965 172.126 268.024 172.791 268.296 173.381C268.568 173.97 269.035 174.447 269.618 174.73L270.941 175.371L271.1 177.974H290.248Z" fill="#95ABC1"/>
<path d="M284.497 157.52L284.231 156.548C284.148 156.253 283.962 155.998 283.706 155.83C283.45 155.663 283.142 155.593 282.839 155.636L278.546 156.229L278.184 157.529L284.497 157.52Z" fill="#2A67B2"/>
</g>
<mask id="mask3_2751_9065" style="mask-type:alpha" maskUnits="userSpaceOnUse" x="69" y="124" width="31" height="30">
<circle cx="84.5393" cy="138.736" r="14.5398" fill="#C4C4C4"/>
</mask>
<g mask="url(#mask3_2751_9065)">
<circle cx="84.5393" cy="138.736" r="14.5398" fill="#FCE2BA"/>
<path d="M88.1445 133.959C88.1472 135.068 87.8249 136.154 87.2174 137.081C87.2045 137.105 87.1899 137.128 87.1738 137.149C86.6508 137.923 85.9471 138.556 85.1239 138.995C84.3008 139.434 83.3831 139.665 82.4508 139.667C80.9387 139.663 79.4899 139.059 78.422 137.986C77.354 136.914 76.7544 135.46 76.7544 133.945C76.7544 133.858 76.7544 133.773 76.7544 133.686C76.7544 133.599 76.7761 133.457 76.7788 133.332C76.7775 133.321 76.7775 133.31 76.7788 133.299C76.7951 133.136 76.8197 132.975 76.8496 132.82C77.1515 131.452 77.9432 130.244 79.0749 129.422C80.2066 128.601 81.5997 128.223 82.9902 128.362C84.3808 128.501 85.6723 129.146 86.6202 130.175C87.5681 131.203 88.1066 132.545 88.1338 133.945L88.1445 133.959Z" fill="#DE9885"/>
<path d="M79.4649 144.465C79.4649 144.465 80.5362 141.046 78.9048 140.217C78.8481 140.187 78.789 140.161 78.728 140.141C76.8628 139.484 76.7513 139.416 76.7948 137.574C76.8091 137.415 76.7953 137.255 76.7541 137.1C76.5909 136.555 76.0552 136.555 76.0552 136.07C76.0552 135.525 76.6316 134.907 76.7622 133.702C76.7758 133.591 76.7839 133.473 76.7866 133.348C76.7879 133.337 76.7879 133.326 76.7866 133.315L83.5626 135.768L87.2116 137.086L87.1654 137.155C86.8147 137.699 86.51 138.165 86.268 138.596C85.1532 140.539 85.2321 141.637 87.4971 144.419L79.4649 144.465Z" fill="#DE9885"/>
<path d="M88.1475 133.959C88.1502 135.068 87.8279 136.154 87.2204 137.081L87.1742 137.149C86.8234 137.694 86.5188 138.16 86.2768 138.591L85.9452 138.463L84.8439 138.038C84.4006 137.866 84.0308 137.545 83.7981 137.13C83.5653 136.714 83.4842 136.231 83.5686 135.762C83.5751 135.717 83.5842 135.673 83.5959 135.629L83.7617 134.969L81.2764 133.959C80.8223 134.776 80.0963 134.294 80.1888 133.749C80.2812 133.204 80.6972 131.321 80.7326 131.201L79.645 133.411C79.3404 134.04 78.5738 133.732 78.7451 133.187C78.9164 132.643 79.1529 131.997 79.1529 131.997L78.4732 133.103C78.414 133.211 78.3154 133.292 78.1981 133.329C78.0808 133.365 77.9538 133.355 77.8438 133.3C77.7338 133.245 77.6492 133.15 77.6079 133.034C77.5666 132.918 77.5716 132.79 77.622 132.678C77.538 132.792 77.415 132.871 77.2765 132.9C77.138 132.928 76.9938 132.905 76.8716 132.833C77.1735 131.466 77.9653 130.257 79.097 129.436C80.2287 128.614 81.6217 128.237 83.0122 128.376C84.4028 128.514 85.6943 129.159 86.6422 130.188C87.5901 131.217 88.1286 132.559 88.1558 133.959H88.1475Z" fill="#E7592F"/>
<path d="M82.4309 136.045C83.183 136.045 83.7927 135.434 83.7927 134.68C83.7927 133.926 83.183 133.315 82.4309 133.315C81.6788 133.315 81.0691 133.926 81.0691 134.68C81.0691 135.434 81.6788 136.045 82.4309 136.045Z" fill="#DE9885"/>
<path d="M86.3583 142.863C87.503 144.413 91.1766 146.353 91.3071 151.835C91.4376 157.318 91.6361 164.028 91.6361 164.028H74.2177C73.0779 150.54 79.3839 147.222 79.6939 143.471L86.3583 142.863Z" fill="#7F2118"/>
<path d="M79.6936 143.476L85.9665 141.436C86.164 141.371 86.3725 141.348 86.5793 141.367C86.7861 141.387 86.9868 141.448 87.1691 141.548C87.3513 141.647 87.5114 141.783 87.6393 141.947C87.7673 142.111 87.8606 142.3 87.9134 142.501C87.9685 142.713 87.9777 142.934 87.9403 143.15C87.9029 143.365 87.8199 143.57 87.6967 143.751C87.5735 143.932 87.4131 144.084 87.2263 144.197C87.0395 144.311 86.8305 144.383 86.6136 144.408L80.2048 145.158L79.6936 143.476Z" fill="#7F2118"/>
<path d="M80.3196 139.386C80.3235 139.538 80.2904 139.687 80.2233 139.823C80.1562 139.958 80.057 140.075 79.9344 140.163C79.8118 140.251 79.6696 140.308 79.5202 140.328C79.3707 140.349 79.2186 140.332 79.077 140.28L78.9001 140.215C78.8435 140.184 78.7844 140.159 78.7234 140.139C77.0267 139.542 76.7821 139.43 76.7821 138.027C76.7821 137.912 76.7821 137.787 76.7821 137.651C76.7821 137.626 76.7821 137.599 76.7821 137.572C76.7964 137.413 76.7825 137.252 76.7412 137.098L77.7691 137.228L79.4794 137.449C79.6993 137.476 79.9023 137.581 80.0519 137.745C80.2015 137.909 80.2877 138.121 80.2951 138.343L80.3196 139.256V139.386Z" fill="#E7592F"/>
</g>
<mask id="mask4_2751_9065" style="mask-type:alpha" maskUnits="userSpaceOnUse" x="231" y="55" width="53" height="53">
<circle cx="257.382" cy="81.3008" r="26.1424" fill="#C4C4C4"/>
</mask>
<g mask="url(#mask4_2751_9065)">
<circle cx="257.382" cy="81.3008" r="26.1424" fill="#FCE2BA"/>
<path d="M265.581 73.9859C265.41 75.7776 264.718 77.4794 263.591 78.8808C263.045 79.5596 262.402 80.1554 261.685 80.6495C260.238 81.6685 258.53 82.25 256.763 82.3249C254.995 82.3998 253.244 81.965 251.716 81.072C250.189 80.179 248.949 78.8654 248.144 77.2872C247.339 75.7089 247.003 73.9325 247.176 72.1687L247.216 71.8282C247.247 71.5938 247.287 71.3638 247.34 71.1338C247.59 69.9366 248.079 68.8024 248.778 67.7998C249.982 66.0544 251.749 64.7766 253.781 64.1801C255.813 63.5837 257.988 63.7049 259.942 64.5234C259.968 64.5299 259.994 64.5402 260.017 64.5543C261.826 65.3279 263.341 66.66 264.342 68.3564C265.342 70.0528 265.777 72.025 265.581 73.9859Z" fill="#EFB7A8"/>
<path d="M249.902 89.5633C249.902 89.5633 252.333 83.8151 249.395 82.4664C248.781 82.179 248.287 81.949 247.899 81.7323H247.868C246.438 80.9364 246.394 80.3571 246.676 78.0313C246.676 77.9826 246.676 77.9384 246.676 77.8942C246.727 77.5808 246.69 77.2594 246.57 76.9656C246.472 76.7589 246.336 76.5729 246.169 76.4174C245.909 76.1476 245.653 75.9266 245.697 75.4844C245.785 74.6001 246.782 73.7156 247.197 71.8497C247.252 71.6208 247.293 71.3891 247.321 71.1555L252.81 73.7686L253.935 74.3039L254.019 74.3436L257.809 76.1477L258.083 76.276L263.572 78.8891C263.106 79.4961 262.749 80.1801 262.517 80.9099C261.635 83.7752 263.043 86.7423 264.565 89.5412L249.902 89.5633Z" fill="#EFB7A8"/>
<path d="M265.58 73.9859C265.409 75.7775 264.717 77.4793 263.59 78.8807C263.124 79.4877 262.767 80.1717 262.536 80.9015L261.684 80.6628L260.321 80.3C258.269 79.7606 257.774 78.138 258.114 76.2675C258.175 75.9206 258.257 75.5779 258.361 75.2416L254.244 73.6762L254.165 73.8533L253.962 74.2955L253.817 74.6137L252.66 74.1407L252.837 73.7602L255.158 68.6929C252.993 69.0103 250.783 68.7036 248.786 67.8086C248.477 67.6715 248.305 67.5743 248.305 67.5743C247.594 67.2897 246.972 66.8213 246.5 66.2169C246.223 65.8696 246.029 65.4622 245.936 65.0273C245.891 64.8103 245.89 64.5867 245.933 64.3694C245.976 64.1521 246.063 63.9457 246.187 63.7627C246.37 63.5464 246.601 63.376 246.862 63.2655C247.122 63.1549 247.405 63.1071 247.687 63.126C248.252 63.1707 248.806 63.305 249.329 63.5239C249.104 63.4128 248.93 63.2206 248.842 62.9859C248.753 62.7511 248.757 62.4914 248.852 62.2593C248.958 62.0319 249.12 61.8349 249.322 61.6865C249.524 61.5382 249.76 61.4432 250.008 61.4104C250.505 61.347 251.01 61.3953 251.487 61.5518C252.154 61.7423 252.798 62.0078 253.406 62.3433C253.286 62.2603 253.187 62.1506 253.116 62.0227C253.045 61.8948 253.005 61.7521 252.999 61.606C252.992 61.4599 253.02 61.3143 253.079 61.1807C253.138 61.047 253.228 60.9287 253.34 60.8354C253.536 60.7246 253.754 60.6571 253.978 60.6372C254.203 60.6174 254.429 60.6458 254.641 60.7206C256.49 61.1627 257.699 62.98 259.2 64.0678C259.171 63.9591 259.171 63.8448 259.2 63.7361C259.274 63.5585 259.411 63.415 259.585 63.3332C259.758 63.2515 259.956 63.2374 260.14 63.294C260.499 63.4288 260.808 63.6732 261.022 63.9926C261.437 64.5195 261.771 65.1052 262.015 65.7305C261.992 65.6646 261.983 65.5948 261.988 65.5253C261.993 65.4559 262.012 65.3882 262.044 65.3263C262.076 65.2644 262.12 65.2095 262.173 65.165C262.226 65.1205 262.288 65.0872 262.355 65.0672C262.483 65.0401 262.617 65.0483 262.741 65.0912C262.865 65.134 262.976 65.2097 263.061 65.3103C263.528 65.7879 263.599 66.5176 263.886 67.119C263.833 66.9332 264.062 66.8005 264.252 66.8359C264.344 66.8637 264.428 66.9108 264.499 66.9741C264.571 67.0374 264.628 67.1156 264.667 67.2029C264.84 67.557 264.958 67.9359 265.016 68.3261C265.21 69.3342 265.399 70.4927 265.496 71.5142C265.638 72.3303 265.666 73.162 265.58 73.9859Z" fill="#E7592F"/>
<path d="M256.232 76.829C257.453 76.829 258.442 75.8372 258.442 74.6137C258.442 73.3903 257.453 72.3984 256.232 72.3984C255.011 72.3984 254.021 73.3903 254.021 74.6137C254.021 75.8372 255.011 76.829 256.232 76.829Z" fill="#EFB7A8"/>
<path opacity="0.4" d="M253.674 80.357L253.185 81.7764L253.149 81.8869C253.06 82.1456 252.917 82.3823 252.73 82.5815C252.543 82.7808 252.316 82.938 252.063 83.0429C251.811 83.1478 251.54 83.1979 251.267 83.1899C250.994 83.182 250.725 83.1161 250.48 82.9967L247.898 81.741H247.868C246.438 80.9451 246.394 80.3658 246.676 78.0399C246.676 77.9913 246.676 77.947 246.676 77.9028C246.727 77.5894 246.69 77.2681 246.57 76.9742L248.097 77.2529L249.61 77.5315C250.009 77.6028 250.42 77.5389 250.778 77.3499C251.136 77.1609 251.421 76.8576 251.587 76.488L252.633 74.1577L253.789 74.6308L252.801 77.4872C252.306 78.9508 253.674 80.357 253.674 80.357Z" fill="#E7592F"/>
<path d="M259.109 87.2239H250.284C248.238 87.2233 246.247 87.8874 244.609 89.1165L230.317 99.8656L219.616 96.5493L215.866 104.508L223.164 108.285C224.998 109.234 227.01 109.787 229.071 109.908C231.131 110.029 233.194 109.716 235.127 108.988C237.73 108.011 240.161 107.184 240.038 107.569C237.421 115.705 234.046 125.149 236.067 132.587H271.146C273.573 124.406 272.029 119.321 272.029 119.321C274.787 116.116 274.566 112.538 274.456 109.903C274.346 107.268 273.573 95.8861 273.573 95.8861C272.691 87.1531 266.072 87.2239 263.424 87.2239H259.109Z" fill="#918675"/>
</g>
<mask id="mask5_2751_9065" style="mask-type:alpha" maskUnits="userSpaceOnUse" x="207" y="174" width="36" height="36">
<circle cx="225.045" cy="192.01" r="17.0926" fill="#C4C4C4"/>
</mask>
<g mask="url(#mask5_2751_9065)">
<circle cx="225.045" cy="192.01" r="17.0926" fill="#D6CEC2"/>
<path d="M230.448 186.976C230.45 188.459 230.017 189.911 229.205 191.15L229.099 191.311C228.801 191.75 228.455 192.154 228.067 192.516C226.987 193.544 225.629 194.232 224.163 194.494C222.697 194.757 221.186 194.582 219.817 193.992C218.449 193.403 217.283 192.423 216.465 191.176C215.647 189.929 215.211 188.468 215.213 186.976C215.213 186.874 215.213 186.772 215.213 186.67C215.239 186.486 215.254 186.301 215.257 186.116C215.532 184.224 216.504 182.504 217.982 181.294C219.46 180.085 221.336 179.474 223.241 179.582C225.146 179.689 226.942 180.508 228.275 181.877C229.607 183.246 230.38 185.065 230.441 186.976H230.448Z" fill="#DE9885"/>
<path d="M228.326 192.469C226.268 195.529 226.043 197.933 229.951 200.956L228.588 201.018L220.463 201.295L215.923 200.038C219.62 200.038 219.591 195.893 217.857 195.237C215.367 194.36 215.214 194.268 215.272 191.806C215.367 190.422 214.28 190.6 214.28 189.795C214.28 189.067 215.036 188.254 215.221 186.67C215.247 186.486 215.262 186.302 215.265 186.116L221.012 188.193L224.262 189.365L224.469 189.438L229.195 191.15L229.089 191.311C228.827 191.726 228.569 192.108 228.326 192.469Z" fill="#DE9885"/>
<path d="M216.678 187.184H222.564" stroke="#F1ECE6" stroke-width="0.608932" stroke-miterlimit="10"/>
<path d="M216.776 185.599L216.588 188.767" stroke="#F1ECE6" stroke-width="0.608932" stroke-miterlimit="10"/>
<path d="M230.446 186.976C230.448 188.459 230.015 189.911 229.202 191.15L229.097 191.311C228.824 191.726 228.566 192.108 228.323 192.469C228.236 192.469 228.148 192.505 228.065 192.516C225.982 192.881 224.31 191.693 224.466 189.438C224.482 189.23 224.511 189.023 224.553 188.819C224.571 188.713 224.597 188.611 224.626 188.502V188.458L221.216 187.366L224.15 180.445C221.82 182.51 220.809 179.618 220.809 179.618C221.939 179.312 223.124 179.27 224.272 179.496C225.421 179.722 226.502 180.21 227.432 180.921C228.363 181.633 229.118 182.549 229.638 183.6C230.159 184.65 230.431 185.807 230.435 186.979L230.446 186.976Z" fill="#61382E"/>
<path d="M222.83 190.068C223.835 190.068 224.65 189.251 224.65 188.243C224.65 187.236 223.835 186.419 222.83 186.419C221.824 186.419 221.009 187.236 221.009 188.243C221.009 189.251 221.824 190.068 222.83 190.068Z" fill="#DE9885"/>
<path d="M237.401 239.336C237.401 239.336 233.039 233.872 223.588 233.872H206.412C206.412 233.872 205.957 228.681 210.956 219.848L203.686 217.48L208.902 203.758C209.379 202.503 210.226 201.423 211.329 200.662C212.433 199.9 213.742 199.492 215.082 199.492H217.412L218.96 196.848L219.931 199.478L220.498 201.008L221.254 199.678L221.37 199.478L222.824 196.928L228.851 196.291L229.942 199.492H230.324C232.47 199.492 234.539 200.295 236.124 201.745C237.709 203.195 238.696 205.186 238.891 207.328L239.211 210.832C239.211 210.832 240.854 230.047 237.401 239.336Z" fill="#606E30"/>
<path d="M221.371 199.488H219.932L219.928 199.474L221.371 199.488Z" fill="#DE9885"/>
<path d="M219.212 202.424C219.439 202.424 219.623 202.24 219.623 202.013C219.623 201.785 219.439 201.601 219.212 201.601C218.985 201.601 218.802 201.785 218.802 202.013C218.802 202.24 218.985 202.424 219.212 202.424Z" fill="#F1ECE6"/>
<path d="M219.212 204.256C219.439 204.256 219.623 204.072 219.623 203.845C219.623 203.618 219.439 203.433 219.212 203.433C218.985 203.433 218.802 203.618 218.802 203.845C218.802 204.072 218.985 204.256 219.212 204.256Z" fill="#F1ECE6"/>
<path d="M219.212 206.093C219.439 206.093 219.623 205.909 219.623 205.681C219.623 205.454 219.439 205.27 219.212 205.27C218.985 205.27 218.802 205.454 218.802 205.681C218.802 205.909 218.985 206.093 219.212 206.093Z" fill="#F1ECE6"/>
</g>
<mask id="mask6_2751_9065" style="mask-type:alpha" maskUnits="userSpaceOnUse" x="130" y="91" width="62" height="61">
<circle cx="161.116" cy="121.68" r="30.3192" fill="#C4C4C4"/>
</mask>
<g mask="url(#mask6_2751_9065)">
<circle cx="159.313" cy="121.43" r="30.3192" fill="#FCE2BA"/>
<path d="M146.196 117.818C146.196 118.628 146.937 118.774 147.37 119.415C147.63 119.833 147.737 120.329 147.673 120.817C147.586 124.49 148.062 125.304 151.767 126.614C152.072 126.718 152.366 126.854 152.642 127.021C155.346 128.608 154.394 132.063 153.291 135.083L167.703 134.464C165.881 130.493 164.999 127.809 166.081 124.386C166.642 122.777 168.848 119.047 169.808 117.642L156.179 115.433L148.172 112.222V112.27C148.172 112.412 148.172 112.866 148.172 112.996C148.172 113.383 147.943 113.686 147.786 114.157C147.013 116.48 146.196 116.737 146.196 117.818Z" fill="#955646"/>
<circle cx="159.747" cy="111.834" r="11.6149" fill="#955646"/>
<path d="M142.492 186.959L170.439 192.354C172.524 187.355 173.411 181.935 173.03 176.529C172.538 167.445 172.776 162.974 172.949 161.165L176.047 160.416C174.425 142.998 167.395 135.762 165.913 129.759L153.686 133.931C151.805 139.695 147.576 149.615 147.576 149.615C142.73 161.279 145.948 175.676 142.492 186.959Z" fill="#BB8DBE"/>
<path d="M150.877 98.6714L172.899 101.382L171.354 112.996L156.672 110.079L156.791 110.099L148.558 108.738L150.877 98.6714Z" fill="#132638"/>
<path d="M156.672 110.079L171.354 112.996C171.225 113.771 171.072 114.617 170.581 116.094C170.195 117.255 167.876 120.74 167.876 120.74C167.49 121.514 166.64 123.218 166.331 123.837C164.786 123.579 160.072 122.598 159.763 119.191V116.094L156.672 115.319V110.079Z" fill="url(#paint0_linear_2751_9065)"/>
<path d="M158.915 119.416C157.419 119.416 156.206 118.198 156.206 116.694C156.206 115.191 157.419 113.973 158.915 113.973C160.412 113.973 161.625 115.191 161.625 116.694C161.625 118.198 160.412 119.416 158.915 119.416Z" fill="#955646"/>
<path d="M147.671 120.818C147.584 124.491 148.061 125.306 151.765 126.615C152.07 126.719 152.364 126.856 152.64 127.023L152.743 127.061C153.129 127.207 153.545 127.257 153.954 127.207C154.364 127.157 154.756 127.009 155.096 126.774C155.436 126.539 155.714 126.225 155.907 125.859C156.1 125.492 156.202 125.085 156.205 124.67V116.695C156.201 117.157 156.101 117.612 155.912 118.033C155.723 118.453 155.447 118.829 155.105 119.136C154.762 119.443 154.358 119.675 153.921 119.816C153.484 119.957 153.022 120.004 152.565 119.955L149.288 119.601L147.368 119.395C147.633 119.819 147.741 120.323 147.671 120.818Z" fill="url(#paint1_linear_2751_9065)"/>
</g>
<circle cx="114.8" cy="132.779" r="4.43551" fill="#E7A33E"/>
<circle cx="219.595" cy="96.7418" r="3.88107" fill="white"/>
<circle cx="200.738" cy="96.7408" r="3.88107" fill="white"/>
<circle cx="206.282" cy="132.225" r="9.42545" fill="#E7A33E"/>
<circle cx="162.699" cy="168.354" r="6.31957" fill="white"/>
<circle cx="173.237" cy="78.1105" r="5.21069" fill="#F8C77E"/>
<mask id="mask7_2751_9065" style="mask-type:alpha" maskUnits="userSpaceOnUse" x="175" y="35" width="22" height="23">
<circle cx="186.15" cy="46.6845" r="10.6961" fill="#C4C4C4"/>
</mask>
<g mask="url(#mask7_2751_9065)">
<circle cx="186.15" cy="46.6845" r="10.6961" fill="#FCE2BA"/>
<path d="M182.036 45.4078C182.313 45.6104 182.614 45.7757 182.934 45.8994C183.397 46.0808 183.891 46.1733 184.388 46.1719C184.948 46.1706 185.501 46.0512 186.011 45.8214C186.521 45.5916 186.977 45.2564 187.349 44.838L187.366 44.819C187.764 44.3676 188.055 43.8317 188.217 43.2516C188.379 42.6715 188.408 42.0622 188.302 41.4693C188.196 40.8764 187.957 40.3153 187.603 39.8281C187.25 39.3408 186.791 38.9401 186.261 38.6559C185.731 38.3716 185.143 38.2112 184.543 38.1868C183.942 38.1623 183.344 38.2744 182.792 38.5146C182.241 38.7548 181.751 39.1169 181.36 39.5737C180.968 40.0306 180.684 40.5704 180.53 41.1527C180.502 41.2556 180.479 41.3585 180.46 41.4652C180.46 41.5071 180.445 41.5509 180.439 41.5948C180.332 42.3159 180.424 43.0527 180.706 43.725C180.987 44.3972 181.448 44.9792 182.036 45.4078Z" fill="#955646"/>
<path d="M181.245 49.1429C181.245 49.1429 182.409 46.7285 181.172 46.0768C179.936 45.4251 179.878 45.3737 180.094 44.1027C180.248 43.3938 179.672 43.4034 179.733 42.9879C179.794 42.5725 180.347 42.1667 180.522 41.1567L187.356 44.8249C185.679 46.7305 185.523 47.3536 186.271 48.8151L181.245 49.1429Z" fill="#955646"/>
<path d="M180.623 40.0872C180.805 39.6761 181.055 39.2992 181.363 38.9724C181.724 38.6275 182.719 38.4293 182.719 38.4293C182.911 38.4099 183.101 38.38 183.289 38.3398C184.086 38.1136 184.934 38.1414 185.715 38.4193C186.495 38.6972 187.17 39.2115 187.646 39.8909C187.869 40.2069 188.124 40.4993 188.407 40.7636C188.706 41.03 188.948 41.354 189.12 41.7164C189.215 41.9317 189.272 42.1604 189.376 42.37C189.482 42.5409 189.578 42.7171 189.665 42.8978C189.71 42.9881 189.73 43.0884 189.723 43.1888C189.716 43.2892 189.683 43.386 189.627 43.4695C189.583 43.522 189.524 43.5601 189.458 43.5788C189.392 43.5975 189.322 43.5959 189.257 43.5743C189.483 43.782 189.681 44.045 189.597 44.327C189.574 44.4051 189.53 44.4775 189.502 44.5538C189.422 44.7748 189.454 45.0645 189.259 45.1921C189.194 45.2276 189.12 45.2435 189.046 45.2377C188.973 45.232 188.902 45.2049 188.844 45.1598C188.77 45.1073 188.706 45.0429 188.654 44.9692C188.8 45.2023 188.902 45.4608 188.954 45.7314C189.009 46.0096 188.954 46.3793 188.677 46.4479C188.59 46.4562 188.503 46.4462 188.42 46.4186C188.338 46.3911 188.262 46.3465 188.197 46.2878C187.888 46.0662 187.605 45.8106 187.353 45.5256C187.602 45.8591 187.859 46.204 187.895 46.646C187.913 46.8387 187.866 47.032 187.762 47.1949C187.719 47.2681 187.656 47.328 187.581 47.3683C187.476 47.4047 187.363 47.4076 187.256 47.3765C187.15 47.3454 187.055 47.282 186.986 47.1949C186.834 47.0329 186.737 46.8271 186.589 46.6613C186.589 46.8252 186.632 46.9948 186.631 47.1568C186.673 47.241 186.684 47.3378 186.662 47.4295C186.639 47.5212 186.584 47.6016 186.507 47.656C186.35 47.7624 186.169 47.8279 185.98 47.8466C185.954 47.8516 185.928 47.8548 185.902 47.8561C185.88 47.8589 185.856 47.8589 185.834 47.8561C185.699 47.8313 185.623 47.6884 185.571 47.5607C185.46 47.2863 185.359 47.0081 185.269 46.7261C185.242 46.6423 185.218 46.5565 185.195 46.4727C185.138 46.5344 185.065 46.5783 184.984 46.5993C184.903 46.6203 184.818 46.6173 184.738 46.5908C184.656 46.5527 184.584 46.4943 184.529 46.4212C184.474 46.3518 184.428 46.2756 184.392 46.1945C184.119 45.5942 184.345 44.7843 184.012 44.186C184.138 44.4692 184.166 44.7866 184.09 45.0873C184.079 45.1657 184.047 45.2398 183.998 45.3017C183.949 45.3637 183.884 45.4114 183.811 45.4399C183.742 45.4491 183.672 45.4379 183.609 45.4078C183.547 45.3776 183.494 45.3298 183.459 45.2702C183.391 45.1492 183.347 45.0158 183.331 44.8777C183.272 44.55 183.225 44.2146 183.158 43.8849C183.085 44.0445 183.03 44.212 182.995 44.3842C182.995 44.5607 183.016 44.7366 183.057 44.9082C183.082 45.2508 183.041 45.5951 182.936 45.922C182.935 45.9308 182.935 45.9398 182.936 45.9486C182.923 46.0242 182.891 46.0955 182.845 46.1564C182.795 46.2013 182.733 46.229 182.667 46.2355C182.601 46.2421 182.534 46.227 182.477 46.1925C182.364 46.1212 182.275 46.0177 182.221 45.8953C182.146 45.7469 182.088 45.5911 182.046 45.4303C182.012 45.3084 181.985 45.1845 181.962 45.0607C181.856 44.5004 181.799 43.9325 181.743 43.3647C181.709 43.0331 181.677 42.7016 181.645 42.3719C181.624 42.1623 181.603 41.9508 181.584 41.7412C181.565 41.5315 181.548 41.3734 181.53 41.1886C181.5 40.878 181.471 40.5655 181.445 40.2549C181.416 40.3149 181.384 40.3734 181.35 40.4302C181.273 40.5756 181.154 40.694 181.008 40.7694C180.934 40.8057 180.85 40.816 180.77 40.7987C180.69 40.7814 180.618 40.7375 180.566 40.6741C180.445 40.4873 180.532 40.2644 180.623 40.0872ZM189.253 43.5743C189.209 43.5324 189.165 43.4962 189.122 43.46C189.149 43.5139 189.196 43.5551 189.253 43.5743Z" fill="#0D2135"/>
<path d="M181.302 49.0342C180.088 51.3018 178.97 52.6319 179.541 55.132C180.111 57.632 178.019 56.8641 178.019 67.9639H180.895C185.485 67.9639 187.632 71.4397 189.191 71.9885C192.762 57.7349 187.06 50.7187 186.067 48.3596L181.302 49.0342Z" fill="#EC9178"/>
</g>
<defs>
<linearGradient id="paint0_linear_2751_9065" x1="163.627" y1="111.647" x2="160.631" y2="123.813" gradientUnits="userSpaceOnUse">
<stop stop-color="#132638"/>
<stop offset="1" stop-color="#132638" stop-opacity="0"/>
</linearGradient>
<linearGradient id="paint1_linear_2751_9065" x1="151.786" y1="116.695" x2="151.786" y2="127.229" gradientUnits="userSpaceOnUse">
<stop stop-color="#0D2135"/>
<stop offset="0.82" stop-color="#0D2135" stop-opacity="0.3"/>
</linearGradient>
</defs>
</svg>
