<svg width="366" height="248" viewBox="0 0 366 248" fill="none" xmlns="http://www.w3.org/2000/svg">
<rect x="127" y="137" width="142" height="99" rx="6" fill="#D9D9D9"/>
<rect x="127" y="21" width="103" height="75" rx="6" fill="#D9D9D9"/>
<rect x="219" y="45" width="110" height="79" rx="6" fill="#D9D9D9"/>
<g clip-path="url(#clip0_2751_9064)">
<path d="M126.589 17H222.396C224.508 17 226.221 18.7129 226.221 20.8251V86.9243C226.221 89.0365 224.508 90.7494 222.396 90.7494H126.589C124.477 90.7494 122.764 89.0365 122.764 86.9243V20.8251C122.764 18.7129 124.477 17 126.589 17Z" fill="white"/>
<path d="M126.589 17.5H222.396C224.232 17.5 225.721 18.989 225.721 20.8251V86.9243C225.721 88.7604 224.232 90.2494 222.396 90.2494H126.589C124.753 90.2494 123.264 88.7604 123.264 86.9243V20.8251C123.264 18.989 124.753 17.5 126.589 17.5Z" stroke="black" stroke-opacity="0.3"/>
<path d="M226.221 20.8251C226.221 18.7129 224.508 17 222.396 17H126.589C124.477 17 122.764 18.7129 122.764 20.8251V28.1917H226.221V20.8251Z" fill="#B0B0B0"/>
<path d="M222.396 17.5C224.232 17.5 225.721 18.989 225.721 20.8251V27.6917H123.264V20.8251C123.264 18.989 124.753 17.5 126.589 17.5H222.396Z" stroke="black" stroke-opacity="0.3"/>
<path d="M207.442 23.4421C207.442 24.4719 206.612 25.3021 205.582 25.3021C204.552 25.3021 203.722 24.4719 203.722 23.4421C203.722 22.4122 204.552 21.582 205.582 21.582C206.612 21.582 207.442 22.4122 207.442 23.4421Z" fill="#38434F"/>
<path d="M206.942 23.4421C206.942 24.1958 206.335 24.8021 205.582 24.8021C204.828 24.8021 204.222 24.1958 204.222 23.4421C204.222 22.6884 204.828 22.082 205.582 22.082C206.335 22.082 206.942 22.6884 206.942 23.4421Z" stroke="black" stroke-opacity="0.3"/>
<path d="M213.537 23.4421C213.537 24.4719 212.707 25.3021 211.677 25.3021C210.647 25.3021 209.817 24.4719 209.817 23.4421C209.817 22.4122 210.647 21.582 211.677 21.582C212.707 21.582 213.537 22.4122 213.537 23.4421Z" fill="#38434F"/>
<path d="M213.037 23.4421C213.037 24.1958 212.43 24.8021 211.677 24.8021C210.923 24.8021 210.317 24.1958 210.317 23.4421C210.317 22.6884 210.923 22.082 211.677 22.082C212.43 22.082 213.037 22.6884 213.037 23.4421Z" stroke="black" stroke-opacity="0.3"/>
<path d="M219.295 23.4421C219.295 24.4719 218.465 25.3021 217.435 25.3021C216.405 25.3021 215.575 24.4719 215.575 23.4421C215.575 22.4122 216.405 21.582 217.435 21.582C218.465 21.582 219.295 22.4122 219.295 23.4421Z" fill="#38434F"/>
<path d="M218.795 23.4421C218.795 24.1958 218.189 24.8021 217.435 24.8021C216.682 24.8021 216.075 24.1958 216.075 23.4421C216.075 22.6884 216.682 22.082 217.435 22.082C218.189 22.082 218.795 22.6884 218.795 23.4421Z" stroke="black" stroke-opacity="0.3"/>
<g clip-path="url(#clip1_2751_9064)">
<mask id="mask0_2751_9064" style="mask-type:luminance" maskUnits="userSpaceOnUse" x="156" y="40" width="38" height="38">
<path d="M187.78 72.0175C195.018 64.7797 195.018 53.045 187.78 45.8072C180.542 38.5695 168.808 38.5695 161.57 45.8072C154.332 53.045 154.332 64.7797 161.57 72.0175C168.808 79.2552 180.542 79.2552 187.78 72.0175Z" fill="white"/>
</mask>
<g mask="url(#mask0_2751_9064)">
<path d="M174.675 58.9123L197.587 80.9417V36.0002H174.675V58.9123Z" fill="#E7A33E"/>
<path d="M153.824 81.8242H197.587V80.5472L174.675 58.9122L153.824 81.8242Z" fill="#004182"/>
<path d="M151.763 81.8243H153.741L174.675 58.9123L151.763 43.0818V81.8243Z" fill="#378FE9"/>
<path d="M151.763 43.8292L174.675 58.9121L170.749 36.0001H151.763V43.8292Z" fill="#A8D4FF"/>
<path d="M170.75 36.8307L174.675 58.9123V36.0002H170.75V36.8307Z" fill="#D0E8FF"/>
</g>
</g>
</g>
<g clip-path="url(#clip2_2751_9064)">
<path d="M319.121 40.0002H215.888C213.609 40.0002 211.762 41.8475 211.762 44.1261V115.348C211.762 117.626 213.609 119.474 215.888 119.474H319.121C321.4 119.474 323.247 117.626 323.247 115.348V44.1261C323.247 41.8475 321.4 40.0002 319.121 40.0002Z" fill="white"/>
<path d="M215.888 40.5002H319.121C321.123 40.5002 322.747 42.1236 322.747 44.1261V115.348C322.747 117.35 321.123 118.974 319.121 118.974H215.888C213.885 118.974 212.262 117.35 212.262 115.348V44.1261C212.262 42.1236 213.885 40.5002 215.888 40.5002Z" stroke="black" stroke-opacity="0.3"/>
<path d="M323.247 44.1261C323.247 41.8458 321.401 40.0002 319.121 40.0002H215.888C213.607 40.0002 211.762 41.8458 211.762 44.1261V52.0589H323.247V44.1261Z" fill="#B0B0B0"/>
<path d="M319.121 40.5002C321.125 40.5002 322.747 42.1219 322.747 44.1261V51.5589H212.262V44.1261C212.262 42.1219 213.883 40.5002 215.888 40.5002H319.121Z" stroke="black" stroke-opacity="0.3"/>
<path d="M303.002 46.9475C303.002 48.0587 302.104 48.9573 300.992 48.9573C299.881 48.9573 298.983 48.0587 298.983 46.9475C298.983 45.8363 299.881 44.9377 300.992 44.9377C302.104 44.9377 303.002 45.8363 303.002 46.9475Z" fill="#38434F"/>
<path d="M302.502 46.9475C302.502 47.7826 301.827 48.4573 300.992 48.4573C300.157 48.4573 299.483 47.7826 299.483 46.9475C299.483 46.1125 300.157 45.4377 300.992 45.4377C301.827 45.4377 302.502 46.1125 302.502 46.9475Z" stroke="black" stroke-opacity="0.3"/>
<path d="M309.582 46.9477C309.582 48.0588 308.683 48.9574 307.572 48.9574C306.461 48.9574 305.562 48.0588 305.562 46.9477C305.562 45.8365 306.461 44.9379 307.572 44.9379C308.683 44.9379 309.582 45.8365 309.582 46.9477Z" fill="#38434F"/>
<path d="M309.082 46.9477C309.082 47.7827 308.407 48.4574 307.572 48.4574C306.737 48.4574 306.062 47.7827 306.062 46.9477C306.062 46.1126 306.737 45.4379 307.572 45.4379C308.407 45.4379 309.082 46.1126 309.082 46.9477Z" stroke="black" stroke-opacity="0.3"/>
<path d="M315.786 46.9477C315.786 48.0588 314.888 48.9574 313.776 48.9574C312.665 48.9574 311.767 48.0588 311.767 46.9477C311.767 45.8365 312.665 44.9379 313.776 44.9379C314.888 44.9379 315.786 45.8365 315.786 46.9477Z" fill="#38434F"/>
<path d="M315.286 46.9477C315.286 47.7827 314.611 48.4574 313.776 48.4574C312.941 48.4574 312.267 47.7827 312.267 46.9477C312.267 46.1126 312.941 45.4379 313.776 45.4379C314.611 45.4379 315.286 46.1126 315.286 46.9477Z" stroke="black" stroke-opacity="0.3"/>
<path d="M314.095 111.077H218.798V61.0334H219.309V110.566H314.095V111.077Z" fill="#E6E6E6"/>
<path d="M220.423 62.0342H219.912V62.2895H220.423V62.0342Z" fill="#E6E6E6"/>
<path d="M314.096 62.0342H313.585V62.2895H314.096V62.0342Z" fill="#E6E6E6"/>
<path d="M228.583 101.078H222.915V110.382H228.583V101.078Z" fill="#E7A33E"/>
<path d="M235.916 96.7482H230.248V110.372H235.916V96.7482Z" fill="#004182"/>
<path d="M243.238 85.9329H237.57V110.383H243.238V85.9329Z" fill="#E7A33E"/>
<path d="M250.572 77.2618H244.904V110.382H250.572V77.2618Z" fill="#004182"/>
<path d="M257.895 81.5206H252.226V110.382H257.895V81.5206Z" fill="#E7A33E"/>
<path d="M265.228 88.639H259.56V110.372H265.228V88.639Z" fill="#004182"/>
<path d="M272.55 95.1652H266.882V110.372H272.55V95.1652Z" fill="#E7A33E"/>
<path d="M279.885 76.6082H274.216V110.372H279.885V76.6082Z" fill="#004182"/>
<path d="M287.207 72.3086H281.538V110.382H287.207V72.3086Z" fill="#E7A33E"/>
<path d="M294.54 83.1241H288.872V110.372H294.54V83.1241Z" fill="#004182"/>
<path d="M301.873 99.5464H296.204V110.372H301.873V99.5464Z" fill="#E7A33E"/>
<path d="M309.194 96.462H303.526V110.372H309.194V96.462Z" fill="#004182"/>
</g>
<g clip-path="url(#clip3_2751_9064)">
<path d="M125.083 129H258.271C261.208 129 263.589 131.381 263.589 134.317V226.207C263.589 229.143 261.208 231.524 258.271 231.524H125.083C122.146 231.524 119.765 229.143 119.765 226.207V134.317C119.765 131.381 122.146 129 125.083 129Z" fill="white"/>
<path d="M125.083 129.5H258.271C260.931 129.5 263.089 131.657 263.089 134.317V226.207C263.089 228.867 260.931 231.024 258.271 231.024H125.083C122.423 231.024 120.265 228.867 120.265 226.207V134.317C120.265 131.657 122.423 129.5 125.083 129.5Z" stroke="black" stroke-opacity="0.3"/>
<path d="M263.589 134.317C263.589 131.381 261.208 129 258.271 129H125.083C122.146 129 119.765 131.381 119.765 134.317V144.558H263.589V134.317Z" fill="#B0B0B0"/>
<path d="M258.271 129.5C260.931 129.5 263.089 131.657 263.089 134.317V144.058H120.265V134.317C120.265 131.657 122.423 129.5 125.083 129.5H258.271Z" stroke="black" stroke-opacity="0.3"/>
<path d="M237.484 137.956C237.484 139.387 236.33 140.541 234.898 140.541C233.466 140.541 232.312 139.387 232.312 137.956C232.312 136.524 233.466 135.37 234.898 135.37C236.33 135.37 237.484 136.524 237.484 137.956Z" fill="#38434F"/>
<path d="M236.984 137.956C236.984 139.111 236.054 140.041 234.898 140.041C233.742 140.041 232.812 139.111 232.812 137.956C232.812 136.8 233.742 135.87 234.898 135.87C236.054 135.87 236.984 136.8 236.984 137.956Z" stroke="black" stroke-opacity="0.3"/>
<path d="M245.956 137.956C245.956 139.387 244.802 140.541 243.371 140.541C241.939 140.541 240.785 139.387 240.785 137.956C240.785 136.524 241.939 135.37 243.371 135.37C244.802 135.37 245.956 136.524 245.956 137.956Z" fill="#38434F"/>
<path d="M245.456 137.956C245.456 139.111 244.526 140.041 243.371 140.041C242.215 140.041 241.285 139.111 241.285 137.956C241.285 136.8 242.215 135.87 243.371 135.87C244.526 135.87 245.456 136.8 245.456 137.956Z" stroke="black" stroke-opacity="0.3"/>
<path d="M253.962 137.956C253.962 139.387 252.808 140.541 251.376 140.541C249.944 140.541 248.79 139.387 248.79 137.956C248.79 136.524 249.944 135.37 251.376 135.37C252.808 135.37 253.962 136.524 253.962 137.956Z" fill="#38434F"/>
<path d="M253.462 137.956C253.462 139.111 252.532 140.041 251.376 140.041C250.221 140.041 249.29 139.111 249.29 137.956C249.29 136.8 250.221 135.87 251.376 135.87C252.532 135.87 253.462 136.8 253.462 137.956Z" stroke="black" stroke-opacity="0.3"/>
<path d="M251.937 213.645H133.158V214.022H251.937V213.645Z" fill="#CCCCCC"/>
<path d="M133.339 159.089H132.978V213.825H133.339V159.089Z" fill="#CCCCCC"/>
<path d="M250.837 201.003L241.003 194.879L231.153 188.197L220.777 179.677L211.567 188.164L201.323 196.127L191.111 187.196L181.064 175.31L171.312 167.462L161.527 174.554L151.578 186.375L141.432 193.828H133.158V193.155H141.202L151.118 185.882L161.067 174.062L171.345 166.608L181.54 174.817L191.587 186.72L201.355 195.24L211.14 187.655L220.761 178.79L231.563 187.655L241.381 194.305L251.199 200.428L250.837 201.003Z" fill="#E7A33E"/>
<path d="M143.321 171.452L153.533 176.344L163.383 184.274L173.381 175.277L183.609 183.863L193.607 191.235L203.326 199.722L213.275 183.239L223.356 187.951L233.436 178.84L243.565 189.084L251.577 189.084L251.577 189.774L243.27 189.774L233.403 179.775L223.471 188.756L213.538 184.11L203.491 200.773L203.179 200.494L193.181 191.76L183.199 184.405L173.398 176.18L163.399 185.16L163.186 184.98L153.171 176.919L143.452 172.256L133.618 181.368L133.159 180.859L143.321 171.452Z" fill="#004182"/>
<path d="M173.332 177.033L173.529 177.132L183.954 182.402L193.624 187.179L193.673 187.261L203.409 202.398L213.226 189.97L223.224 184.273L233.321 178.347L233.436 178.363L243.434 179.545L251.561 179.545L251.561 180.218L243.401 180.218L233.469 179.052L223.569 184.864L213.62 190.528L203.359 203.564L193.148 187.704L183.659 183.009L173.431 177.838L163.399 186.161L153.352 179.561L143.534 184.979L133.569 192.761L133.159 192.236L143.157 184.421L153.385 178.773L163.35 185.307L173.332 177.033Z" fill="#378FE9"/>
<line x1="151.598" y1="158.817" x2="151.598" y2="214.066" stroke="black" stroke-opacity="0.2" stroke-width="0.526184" stroke-dasharray="1.75 1.75"/>
<line x1="171.769" y1="158.817" x2="171.769" y2="214.066" stroke="black" stroke-opacity="0.2" stroke-width="0.526184" stroke-dasharray="1.75 1.75"/>
<line x1="191.062" y1="158.817" x2="191.062" y2="214.066" stroke="black" stroke-opacity="0.2" stroke-width="0.526184" stroke-dasharray="1.75 1.75"/>
<line x1="208.601" y1="158.817" x2="208.601" y2="214.066" stroke="black" stroke-opacity="0.2" stroke-width="0.526184" stroke-dasharray="1.75 1.75"/>
<line x1="229.649" y1="158.817" x2="229.649" y2="214.066" stroke="black" stroke-opacity="0.2" stroke-width="0.526184" stroke-dasharray="1.75 1.75"/>
<line x1="248.942" y1="158.817" x2="248.942" y2="214.066" stroke="black" stroke-opacity="0.2" stroke-width="0.526184" stroke-dasharray="1.75 1.75"/>
<g filter="url(#filter0_d_2751_9064)">
<path d="M182.03 157.063C182.03 156.094 182.815 155.309 183.784 155.309H209.216C210.185 155.309 210.97 156.094 210.97 157.063V171.972C210.97 172.94 210.185 173.726 209.216 173.726H183.784C182.815 173.726 182.03 172.94 182.03 171.972V170.129C182.03 169.505 181.699 168.928 181.16 168.614L174.137 164.517L181.16 160.421C181.699 160.107 182.03 159.53 182.03 158.906V157.063Z" fill="white"/>
<path d="M183.784 155.748H209.216C209.943 155.748 210.532 156.337 210.532 157.063V171.972C210.532 172.698 209.943 173.287 209.216 173.287H183.784C183.057 173.287 182.468 172.698 182.468 171.972V170.129C182.468 169.349 182.054 168.628 181.381 168.235L175.007 164.517L181.381 160.8C182.054 160.407 182.468 159.686 182.468 158.906V157.063C182.468 156.337 183.057 155.748 183.784 155.748Z" stroke="black" stroke-opacity="0.2" stroke-width="0.876974"/>
</g>
</g>
<line x1="96.1965" y1="58.8809" x2="96.1964" y2="142.78" stroke="black" stroke-width="0.883146"/>
<g clip-path="url(#clip4_2751_9064)">
<path d="M44.9836 15.2113H144.76C146.96 15.2113 148.744 16.7987 148.744 18.7561V80.0114C148.744 81.9689 146.96 83.5563 144.76 83.5563H44.9836C42.7839 83.5563 41 81.9689 41 80.0114V18.7561C41 16.7987 42.7839 15.2113 44.9836 15.2113Z" fill="#38434F"/>
<rect x="88.4399" y="42.5493" width="22.5136" height="7.23653" fill="#D9D9D9"/>
<rect x="88.4399" y="52.198" width="45.0273" height="3.21623" fill="#D9D9D9"/>
<rect x="88.4399" y="57.0223" width="45.0273" height="3.21623" fill="#D9D9D9"/>
<mask id="mask1_2751_9064" style="mask-type:alpha" maskUnits="userSpaceOnUse" x="49" y="38" width="28" height="28">
<circle cx="62.709" cy="52.1982" r="13.669" fill="#C4C4C4"/>
</mask>
<g mask="url(#mask1_2751_9064)">
<circle cx="62.709" cy="52.1982" r="13.669" fill="#FFDED5"/>
<path d="M68.3272 49.6292C68.3272 50.1616 67.6012 50.043 67.6666 50.9626C67.7053 52.601 67.7053 52.601 66.3283 53.102C65.4909 53.3754 64.9004 55.0089 65.4135 55.902C65.9265 56.795 67.3955 57.717 67.3955 57.717C67.3955 57.717 65.9435 60.8026 62.3787 60.8026C58.814 60.8026 56.5464 57.717 56.5464 57.717C59.0705 55.8995 59.9345 53.8207 58.935 51.5216C58.7922 51.1982 58.6238 50.8867 58.4316 50.5899L58.3905 50.527L62.1053 49.1887L67.6714 47.1825C67.6702 47.1921 67.6702 47.2019 67.6714 47.2115C67.673 47.3216 67.6811 47.4315 67.6956 47.5407C67.819 48.591 68.3272 49.1452 68.3272 49.6292Z" fill="#DE9885"/>
<path d="M67.7061 47.7562C67.7072 48.7303 67.4274 49.684 66.9002 50.5032C66.3731 51.3223 65.621 51.972 64.734 52.3745C63.8469 52.777 62.8627 52.9153 61.8991 52.7726C60.9355 52.63 60.0335 52.2125 59.3012 51.5703C58.9702 51.2873 58.678 50.9618 58.4324 50.6022L58.3912 50.5393C57.9866 49.9593 57.7074 49.3013 57.5716 48.6072C57.4358 47.9132 57.4464 47.1985 57.6026 46.5088C57.7588 45.8191 58.0572 45.1695 58.4788 44.6017C58.9004 44.0339 59.4358 43.5604 60.0508 43.2113C60.6659 42.8623 61.347 42.6455 62.0506 42.5747C62.7543 42.5039 63.4649 42.5808 64.1372 42.8004C64.8094 43.02 65.4284 43.3774 65.9546 43.8499C66.4808 44.3224 66.9026 44.8995 67.193 45.5443C67.4487 46.0623 67.6125 46.6207 67.677 47.1948C67.6782 47.2044 67.6782 47.2142 67.677 47.2238C67.6786 47.3339 67.6867 47.4438 67.7012 47.5529C67.7036 47.6231 67.7061 47.6836 67.7061 47.7562Z" fill="#DE9885"/>
<path d="M67.1925 45.5322C67.1919 45.7932 67.1341 46.0509 67.0231 46.2872C66.9366 46.4732 66.8057 46.6351 66.642 46.7588C66.4783 46.8824 66.2867 46.964 66.0841 46.9963C65.8131 47.0002 65.5422 46.9848 65.2734 46.9503C65.1381 46.9359 65.0015 46.9598 64.8791 47.0193C64.7567 47.0787 64.6535 47.1714 64.5813 47.2867C64.4772 47.5118 64.5644 47.8046 64.4095 47.9982C64.3497 48.0638 64.2716 48.11 64.1853 48.1307C64.099 48.1514 64.0085 48.1457 63.9255 48.1144C63.7534 48.0403 63.6081 47.9153 63.5092 47.7562L62.108 49.1889L61.866 49.4309C61.774 51.5581 60.5156 51.7106 59.2959 51.5726C59.1725 51.5726 59.0539 51.5436 58.9304 51.5242C58.7876 51.2008 58.6193 50.8892 58.4271 50.5925L58.3859 50.5296C57.8903 49.7638 57.6099 48.8788 57.5742 47.9673C57.5385 47.0558 57.7487 46.1516 58.1829 45.3493C58.617 44.5471 59.2591 43.8766 60.0417 43.408C60.8243 42.9394 61.7186 42.6901 62.6307 42.6862C66.1398 42.6862 66.9481 43.8962 67.1514 45.1062C67.1775 45.2467 67.1913 45.3892 67.1925 45.5322V45.5322Z" fill="#61382D"/>
<path d="M62.6353 49.8086C63.3049 49.8086 63.8478 49.2657 63.8478 48.5961C63.8478 47.9265 63.3049 47.3837 62.6353 47.3837C61.9657 47.3837 61.4229 47.9265 61.4229 48.5961C61.4229 49.2657 61.9657 49.8086 62.6353 49.8086Z" fill="#DE9885"/>
<path d="M55.2741 57.7172C57.6492 57.7172 59.5745 55.7919 59.5745 53.4168C59.5745 51.0417 57.6492 49.1163 55.2741 49.1163C52.899 49.1163 50.9736 51.0417 50.9736 53.4168C50.9736 55.7919 52.899 57.7172 55.2741 57.7172Z" fill="#61382D"/>
<path d="M58.1395 58.0415C62.6166 61.3086 66.8105 58.0415 66.8105 58.0415V77.9852H57.5659L58.1395 58.0415Z" fill="#F4FBFE"/>
<path d="M58.9279 55.6843C58.2793 57.088 56.3384 57.7462 54.4871 58.0511C53.3966 58.2265 52.4068 58.7912 51.701 59.6408C50.9952 60.4903 50.6214 61.5669 50.6489 62.671L50.9852 75.1658C51.0024 75.8208 51.1917 76.4597 51.5341 77.0184C51.8765 77.577 52.3599 78.0357 52.9358 78.3482V78.3482L51.9678 86.5159H62.4346L62.011 82.1598L63.7051 82.9463L66.6092 77.0776L61.5875 74.7399L58.9279 55.6843Z" fill="#0D2135"/>
<path d="M65.7981 56.4126C66.7443 57.3613 68.799 58.0316 70.6382 58.4673C71.6684 58.7166 72.597 59.2766 73.2983 60.0713C73.9996 60.8661 74.4396 61.8573 74.5587 62.9105L75.6332 72.2374L82.7119 68.7888L85.1925 74.1129L76.2382 78.59C73.6367 80.0421 70.7592 79.6791 70.7592 79.6791H64.5518L65.7981 56.4126Z" fill="#0D2135"/>
</g>
</g>
<g clip-path="url(#clip5_2751_9064)">
<path d="M44.9836 54.6099H144.76C146.96 54.6099 148.744 56.1972 148.744 58.1547V119.41C148.744 121.367 146.96 122.955 144.76 122.955H44.9836C42.7839 122.955 41 121.367 41 119.41V58.1547C41 56.1972 42.7839 54.6099 44.9836 54.6099Z" fill="#38434F"/>
<rect x="88.4399" y="81.948" width="22.5136" height="7.23653" fill="#D9D9D9"/>
<rect x="88.4399" y="91.5966" width="45.0273" height="3.21623" fill="#D9D9D9"/>
<rect x="88.4399" y="96.4211" width="45.0273" height="3.21623" fill="#D9D9D9"/>
<mask id="mask2_2751_9064" style="mask-type:alpha" maskUnits="userSpaceOnUse" x="49" y="77" width="28" height="29">
<circle cx="62.709" cy="91.5966" r="13.669" fill="#C4C4C4"/>
</mask>
<g mask="url(#mask2_2751_9064)">
<circle cx="62.709" cy="91.5966" r="13.669" fill="#DBE7E9"/>
<path d="M56.4485 88.221C56.589 89.2905 57.0411 90.295 57.7485 91.1094L57.8465 91.2206C58.6424 92.0954 59.6969 92.693 60.8563 92.926C62.0158 93.1591 63.2194 93.0154 64.2915 92.5161C65.3635 92.0167 66.2479 91.1878 66.8155 90.1503C67.3831 89.1128 67.6042 87.921 67.4466 86.7489C67.4466 86.6695 67.4253 86.5874 67.4068 86.5079C67.3729 86.3852 67.3464 86.2605 67.3274 86.1346C67.285 85.9651 67.2349 85.801 67.1793 85.6422C66.7903 84.5322 66.0564 83.5757 65.085 82.9125L65.0053 82.8596L64.8758 82.7722C63.9816 82.2221 62.9499 81.9364 61.9001 81.9482C60.8503 81.96 59.8252 82.2688 58.9436 82.8388C58.0619 83.4088 57.3599 84.2168 56.9183 85.1693C56.4767 86.1218 56.3139 87.1798 56.4485 88.221V88.221Z" fill="#DE9885"/>
<path d="M59.3907 93.0105C60.4683 94.4058 60.6432 95.5045 59.0308 98.1256L66.1793 97.2148C66.1793 97.2148 64.5908 93.8418 66.3329 92.9575C68.075 92.0732 68.1465 92.0043 67.8659 90.2331C67.6646 89.2482 68.4669 89.2695 68.3954 88.6897C68.3265 88.1602 67.6936 87.6465 67.4103 86.508C67.3764 86.3852 67.35 86.2605 67.3309 86.1346L63.3913 88.1812L63.2191 88.2686L61.1541 89.3435L61.0191 89.415L57.76 91.1069L57.8578 91.2181C58.4667 91.9197 58.999 92.4835 59.3988 93.0078L59.3907 93.0105Z" fill="#DE9885"/>
<path d="M56.4497 88.221C56.5902 89.2905 57.0424 90.295 57.7498 91.1094L57.8477 91.2206C58.4567 91.9222 58.9887 92.4862 59.3885 93.0104C59.6222 92.9335 59.8462 92.8296 60.0558 92.7007C60.993 92.1288 61.459 91.0963 61.0062 89.4177C60.9639 89.2588 60.8579 88.9516 60.7996 88.7822L63.2063 88.2713L63.3836 88.2236C63.3823 88.2095 63.3823 88.1952 63.3836 88.1811C63.4359 87.3965 63.311 86.6102 63.0183 85.8804C63.6709 86.3622 64.4873 86.5669 65.2899 86.4497C65.0867 86.3527 64.9078 86.2112 64.7666 86.0357C64.6255 85.8601 64.5256 85.6551 64.4745 85.4357C65.3388 85.7501 66.2729 85.8215 67.1751 85.6422C67.5283 85.5857 67.8757 85.4971 68.2129 85.3774C67.6602 85.2224 67.1426 84.9626 66.6879 84.6122C67.6728 84.8929 68.0619 84.3979 68.0619 84.3979C67.0532 84.1569 65.6129 83.262 65.0808 82.9152L65.0014 82.8622L64.8716 82.7748C63.9774 82.2247 62.9457 81.939 61.8959 81.9508C60.8461 81.9626 59.8212 82.2714 58.9396 82.8414C58.058 83.4114 57.3557 84.2194 56.9141 85.1718C56.4725 86.1243 56.3097 87.1824 56.4443 88.2236L56.4497 88.221Z" fill="#61382D"/>
<path d="M62.0696 89.7248C61.337 89.7248 60.7431 89.1309 60.7431 88.3983C60.7431 87.6658 61.337 87.0719 62.0696 87.0719C62.8021 87.0719 63.396 87.6658 63.396 88.3983C63.396 89.1309 62.8021 89.7248 62.0696 89.7248Z" fill="#DE9885"/>
<path d="M51.9805 120.543L48.3028 115.579C47.8674 114.989 47.5843 114.301 47.4786 113.576C47.3728 112.851 47.4476 112.111 47.6965 111.422L51.5011 100.887C51.9345 99.6903 52.7263 98.6562 53.7686 97.9257C54.8109 97.1951 56.053 96.8037 57.3258 96.8046H68.721C70.0919 96.8043 71.424 97.2595 72.5081 98.0986C73.5921 98.9378 74.3666 100.113 74.7099 101.44L77.7071 113.026C77.8958 113.756 77.8262 114.528 77.51 115.212C77.1939 115.896 76.6508 116.449 75.9729 116.778L74.4346 117.522L74.2492 120.543H51.9805Z" fill="#95ABC1"/>
<path d="M58.6677 96.8044L58.9774 95.6765C59.0733 95.3341 59.2901 95.0382 59.5876 94.8434C59.885 94.6487 60.243 94.5684 60.5952 94.6174L65.5884 95.3058L66.0093 96.815L58.6677 96.8044Z" fill="#2A67B2"/>
</g>
</g>
<g clip-path="url(#clip6_2751_9064)">
<path d="M44.9836 94.009H144.76C146.96 94.009 148.744 95.5964 148.744 97.5539V158.809C148.744 160.767 146.96 162.354 144.76 162.354H44.9836C42.7839 162.354 41 160.767 41 158.809V97.5539C41 95.5964 42.7839 94.009 44.9836 94.009Z" fill="#38434F"/>
<rect x="88.4399" y="121.347" width="22.5136" height="7.23653" fill="#D9D9D9"/>
<rect x="88.4399" y="130.996" width="45.0273" height="3.21623" fill="#D9D9D9"/>
<rect x="88.4399" y="135.82" width="45.0273" height="3.21623" fill="#D9D9D9"/>
<mask id="mask3_2751_9064" style="mask-type:alpha" maskUnits="userSpaceOnUse" x="49" y="117" width="28" height="28">
<circle cx="62.709" cy="130.996" r="13.669" fill="#C4C4C4"/>
</mask>
<g mask="url(#mask3_2751_9064)">
<circle cx="62.709" cy="130.996" r="13.669" fill="#EAF6E4"/>
<path d="M62.5409 132.053C65.2651 132.053 67.4735 129.845 67.4735 127.121C67.4735 124.397 65.2651 122.188 62.5409 122.188C59.8168 122.188 57.6084 124.397 57.6084 127.121C57.6084 129.845 59.8168 132.053 62.5409 132.053Z" fill="#955646"/>
<path d="M68.0808 128.943C68.0808 129.463 67.3745 129.348 67.4381 130.243C67.4757 131.834 67.3768 131.891 65.764 132.461C65.5509 132.542 65.3621 132.676 65.215 132.85C65.068 133.024 64.9677 133.233 64.9235 133.457C64.6386 134.523 65.0694 136.013 65.1212 136.181C65.1206 136.186 65.1206 136.192 65.1212 136.197L62.4349 136.181L58.4605 136.157H58.2251C58.3099 136.044 58.3923 135.922 58.4605 135.823C59.1104 134.914 59.4966 134.175 59.619 133.468C59.679 133.122 59.679 132.769 59.619 132.423V132.423C59.4872 131.667 59.0822 130.862 58.4088 129.833L61.5307 128.708L61.6061 128.682L63.711 127.921L67.4356 126.579C67.4375 126.697 67.4469 126.814 67.4639 126.93V126.93C67.5911 127.947 68.0808 128.477 68.0808 128.943Z" fill="#955646"/>
<path d="M63.3892 127.121C63.4332 127.16 63.4845 127.19 63.5402 127.209C63.5959 127.228 63.6549 127.236 63.7137 127.232C63.7724 127.228 63.8298 127.212 63.8824 127.186C63.9351 127.16 63.982 127.123 64.0203 127.078C64.1074 126.961 64.1262 126.796 64.2392 126.701C64.4228 126.551 64.7101 126.68 64.9268 126.572C65.1622 126.443 65.1621 126.075 65.3764 125.892C65.5906 125.708 65.8967 125.786 66.1721 125.788C66.3962 125.787 66.6168 125.733 66.8152 125.629C67.0136 125.525 67.184 125.374 67.3118 125.19C67.4242 125.026 67.5042 124.842 67.5472 124.649C67.6241 124.291 67.5904 123.918 67.4506 123.58C67.3504 123.347 67.2034 123.137 67.0187 122.963C66.834 122.789 66.6156 122.655 66.377 122.57C65.9579 122.442 65.487 122.489 65.0962 122.294C64.7619 122.127 64.5335 121.807 64.2533 121.559C64.0594 121.38 63.8299 121.243 63.5796 121.158C63.3293 121.072 63.0639 121.041 62.8006 121.065C62.2332 121.138 61.7458 121.519 61.1831 121.621C60.5521 121.736 59.8411 121.503 59.2996 121.84C59.0668 122.002 58.879 122.221 58.7534 122.475C58.5179 122.883 58.4402 123.398 58.1365 123.754C57.8799 124.053 57.4679 124.192 57.2183 124.5C57.091 124.684 57.0066 124.894 56.9716 125.115C56.9365 125.336 56.9517 125.562 57.0159 125.776C57.0952 126.028 57.1549 126.285 57.1947 126.546C57.192 126.949 57.0978 127.346 56.9193 127.707C56.8521 127.885 56.8241 128.075 56.8371 128.265C56.8501 128.455 56.9037 128.639 56.9946 128.806C57.1411 129.025 57.2576 129.263 57.3407 129.513C57.4302 130.026 56.9499 130.471 56.8934 130.989C56.877 131.156 56.9043 131.324 56.9729 131.476C57.0414 131.629 57.1487 131.762 57.2842 131.86C57.5045 131.981 57.7317 132.089 57.9646 132.183C58.3107 132.369 58.6004 132.71 58.9935 132.712C59.1355 132.7 59.2733 132.658 59.3988 132.591C59.5243 132.523 59.6347 132.431 59.7234 132.319C59.9013 132.097 60.1053 131.897 60.3309 131.724C60.4863 131.625 60.6628 131.568 60.8252 131.488C61.5151 131.125 62.0731 130.134 61.8164 129.4C61.4774 128.458 61.282 128.164 61.3833 127.806C61.4845 127.448 63.401 127.125 63.401 127.125L63.3892 127.121Z" fill="#0D2135"/>
<path d="M62.5404 129.12C63.1919 129.12 63.72 128.592 63.72 127.94C63.72 127.289 63.1919 126.76 62.5404 126.76C61.8889 126.76 61.3608 127.289 61.3608 127.94C61.3608 128.592 61.8889 129.12 62.5404 129.12Z" fill="#955646"/>
<path d="M66.7011 136.181H58.4653V157.827H66.7011V136.181Z" fill="#0D2135"/>
<path d="M65.1213 136.181H58.4653V135.82C59.1152 134.912 59.5014 134.172 59.6238 133.466H64.9236C64.634 134.523 65.0695 136.014 65.1213 136.181Z" fill="#0D2135"/>
<path d="M59.235 134.577C65.2553 148.132 61.6649 164.062 61.6649 164.062H52.3696C49.1017 149.179 51.2771 139.592 53.6951 137.772C56.1131 135.952 59.235 134.577 59.235 134.577Z" fill="#E7592F"/>
<path d="M64.8686 135.024C64.4754 143.854 65.575 157.827 65.575 157.827L69.9142 157.815L76.4619 164.471L80.9588 160.857L73.4646 153.363C73.7024 138.952 71.607 136.649 64.8686 135.024Z" fill="#E7592F"/>
</g>
</g>
<defs>
<filter id="filter0_d_2751_9064" x="174.137" y="155.309" width="37.7097" height="19.2934" filterUnits="userSpaceOnUse" color-interpolation-filters="sRGB">
<feFlood flood-opacity="0" result="BackgroundImageFix"/>
<feColorMatrix in="SourceAlpha" type="matrix" values="0 0 0 0 0 0 0 0 0 0 0 0 0 0 0 0 0 0 127 0" result="hardAlpha"/>
<feOffset dx="0.876974" dy="0.876974"/>
<feComposite in2="hardAlpha" operator="out"/>
<feColorMatrix type="matrix" values="0 0 0 0 0 0 0 0 0 0 0 0 0 0 0 0 0 0 0.25 0"/>
<feBlend mode="normal" in2="BackgroundImageFix" result="effect1_dropShadow_2751_9064"/>
<feBlend mode="normal" in="SourceGraphic" in2="effect1_dropShadow_2751_9064" result="shape"/>
</filter>
<clipPath id="clip0_2751_9064">
<rect width="103.457" height="73.7494" fill="white" transform="translate(122.764 17)"/>
</clipPath>
<clipPath id="clip1_2751_9064">
<rect width="45.824" height="45.824" fill="white" transform="translate(151.764 36)"/>
</clipPath>
<clipPath id="clip2_2751_9064">
<rect width="111.485" height="79.4734" fill="white" transform="translate(211.764 40)"/>
</clipPath>
<clipPath id="clip3_2751_9064">
<rect width="143.824" height="102.525" fill="white" transform="translate(119.764 129)"/>
</clipPath>
<clipPath id="clip4_2751_9064">
<rect x="41" y="34.5087" width="107.744" height="36.1826" rx="2.41218" fill="white"/>
</clipPath>
<clipPath id="clip5_2751_9064">
<rect x="41" y="73.9077" width="107.744" height="36.1826" rx="2.41218" fill="white"/>
</clipPath>
<clipPath id="clip6_2751_9064">
<rect x="41" y="113.307" width="107.744" height="36.1826" rx="2.41218" fill="white"/>
</clipPath>
</defs>
</svg>
