<svg width="375" height="375" viewBox="0 0 375 375" fill="none" xmlns="http://www.w3.org/2000/svg">
<g clip-path="url(#clip0_5402_1625)">
<rect width="375" height="375" fill="white"/>
<rect x="63.5104" y="1.51039" width="246.979" height="64.9792" rx="32.4896" fill="#FCE2BA" stroke="white" stroke-width="3.02079"/>
<rect x="63.5104" y="66.5104" width="246.979" height="64.9792" rx="32.4896" fill="#DCE6F1" stroke="white" stroke-width="3.02079"/>
<rect x="63.5104" y="132.51" width="246.979" height="64.9792" rx="32.4896" fill="#D7EBCE" stroke="white" stroke-width="3.02079"/>
<path d="M131.52 153.44C131.52 155.04 130.52 156.2 129.26 156.6V156.64C130.78 157.12 131.92 158.32 131.92 160.12C131.92 162.26 130.44 164 127.4 164H123.44V150H127.46C130.2 150 131.52 151.66 131.52 153.44ZM127.18 151.1H124.68V156.16H127.38C129.02 156.16 130.22 155.24 130.22 153.56C130.22 151.92 128.96 151.1 127.18 151.1ZM124.68 157.22V162.9H127.46C129.1 162.9 130.62 162.02 130.62 160.1C130.62 158.16 129.04 157.22 127.4 157.22H124.68ZM137.524 164.24C135.044 164.24 133.764 162.72 133.764 160.88V155.22H134.964V160.76C134.964 162.34 136.044 163.2 137.524 163.2C138.984 163.2 140.044 162.42 140.044 160.82V155.22H141.244V160.88C141.244 162.72 139.984 164.24 137.524 164.24ZM144.592 153.08C144.012 153.08 143.552 152.62 143.552 152.06C143.552 151.48 144.012 151.02 144.592 151.02C145.152 151.02 145.632 151.48 145.632 152.06C145.632 152.62 145.152 153.08 144.592 153.08ZM144.072 164V156.22H142.692V155.22H145.272V164H144.072ZM147.793 164V151H146.393V150H148.973V164H147.793ZM158.605 156.96V150H159.785V164H158.585V162.28C158.025 163.42 156.745 164.24 155.205 164.24C152.705 164.24 150.785 162.3 150.785 159.6C150.785 156.94 152.705 154.98 155.185 154.98C156.725 154.98 158.045 155.82 158.605 156.96ZM155.305 156.02C153.345 156.02 151.985 157.6 151.985 159.6C151.985 161.62 153.345 163.2 155.305 163.2C157.265 163.2 158.625 161.62 158.625 159.6C158.625 157.6 157.265 156.02 155.305 156.02ZM173.467 164V162.28C172.907 163.42 171.627 164.24 170.087 164.24C167.587 164.24 165.667 162.3 165.667 159.6C165.667 156.94 167.587 154.98 170.067 154.98C171.607 154.98 172.927 155.82 173.487 156.96V155.22H174.667V164H173.467ZM170.187 156.02C168.227 156.02 166.867 157.6 166.867 159.6C166.867 161.62 168.227 163.2 170.187 163.2C172.147 163.2 173.507 161.62 173.507 159.6C173.507 157.6 172.147 156.02 170.187 156.02ZM183.268 155.22L185.608 162.94L187.628 155.22H188.908L186.428 164H184.828L182.528 156.42L180.248 164H178.628L176.188 155.22H177.508L179.488 162.92L181.828 155.22H183.268ZM197.51 164V162.28C196.95 163.42 195.67 164.24 194.13 164.24C191.63 164.24 189.71 162.3 189.71 159.6C189.71 156.94 191.63 154.98 194.11 154.98C195.65 154.98 196.97 155.82 197.53 156.96V155.22H198.71V164H197.51ZM194.23 156.02C192.27 156.02 190.91 157.6 190.91 159.6C190.91 161.62 192.27 163.2 194.23 163.2C196.19 163.2 197.55 161.62 197.55 159.6C197.55 157.6 196.19 156.02 194.23 156.02ZM205.211 155.14V156.26C205.071 156.24 204.911 156.22 204.611 156.22C203.451 156.22 202.231 157.02 202.231 159.22V164H201.071V155.22H202.191V156.88C202.551 155.96 203.311 155.1 204.571 155.1C204.871 155.1 205.051 155.12 205.211 155.14ZM213.247 161.44L214.247 161.94C213.307 163.6 211.787 164.24 210.127 164.24C207.527 164.24 205.667 162.3 205.667 159.62C205.667 156.94 207.627 154.98 210.127 154.98C212.467 154.98 214.547 156.64 214.547 159.92V159.98H206.887C207.027 161.8 208.307 163.18 210.147 163.18C211.387 163.18 212.467 162.72 213.247 161.44ZM210.127 156.02C208.367 156.02 207.107 157.32 206.907 159.04H213.287C213.127 157.34 211.887 156.02 210.127 156.02ZM217.465 157.56V164H216.285V155.22H217.465V156.44C218.265 155.52 219.425 154.98 220.525 154.98C222.445 154.98 223.745 156.18 223.745 158.06V164H222.565V158.38C222.565 156.76 221.505 156.06 220.345 156.06C219.245 156.06 218.225 156.66 217.465 157.56ZM233.072 161.44L234.072 161.94C233.132 163.6 231.612 164.24 229.952 164.24C227.352 164.24 225.492 162.3 225.492 159.62C225.492 156.94 227.452 154.98 229.952 154.98C232.292 154.98 234.372 156.64 234.372 159.92V159.98H226.712C226.852 161.8 228.132 163.18 229.972 163.18C231.212 163.18 232.292 162.72 233.072 161.44ZM229.952 156.02C228.192 156.02 226.932 157.32 226.732 159.04H233.112C232.952 157.34 231.712 156.02 229.952 156.02ZM238.45 163.24C239.71 163.24 240.49 162.58 240.49 161.76C240.49 160.96 239.97 160.58 238.85 160.16L237.77 159.76C236.31 159.2 235.73 158.54 235.73 157.44C235.73 156.04 236.93 154.98 238.73 154.98C239.77 154.98 240.83 155.34 241.55 155.98L240.95 156.84C240.35 156.32 239.55 155.96 238.71 155.96C237.63 155.96 236.89 156.52 236.89 157.3C236.89 157.84 237.13 158.3 238.15 158.7L239.39 159.16C241.01 159.8 241.71 160.46 241.71 161.72C241.71 163 240.59 164.24 238.47 164.24C237.29 164.24 236.11 163.84 235.33 163.16L235.97 162.26C236.63 162.88 237.59 163.24 238.45 163.24ZM245.793 163.24C247.053 163.24 247.833 162.58 247.833 161.76C247.833 160.96 247.313 160.58 246.193 160.16L245.113 159.76C243.653 159.2 243.073 158.54 243.073 157.44C243.073 156.04 244.273 154.98 246.073 154.98C247.113 154.98 248.173 155.34 248.893 155.98L248.293 156.84C247.693 156.32 246.893 155.96 246.053 155.96C244.973 155.96 244.233 156.52 244.233 157.3C244.233 157.84 244.473 158.3 245.493 158.7L246.733 159.16C248.353 159.8 249.053 160.46 249.053 161.72C249.053 163 247.933 164.24 245.813 164.24C244.633 164.24 243.453 163.84 242.673 163.16L243.313 162.26C243.973 162.88 244.933 163.24 245.793 163.24ZM123.26 173.854V171.6C123.26 170.382 124.058 170.032 124.758 170.032C125.024 170.032 125.276 170.088 125.472 170.158V170.872C125.276 170.788 125.08 170.76 124.884 170.76C124.408 170.76 124.086 171.04 124.086 171.628V173.854H125.332V174.554H124.086V180H123.26V174.554H122.21V173.854H123.26ZM125.856 176.92C125.856 175.058 127.256 173.686 129.02 173.686C130.77 173.686 132.184 175.058 132.184 176.92C132.184 178.81 130.77 180.168 129.02 180.168C127.256 180.168 125.856 178.81 125.856 176.92ZM131.33 176.92C131.33 175.52 130.392 174.414 129.02 174.414C127.634 174.414 126.696 175.52 126.696 176.92C126.696 178.334 127.634 179.44 129.02 179.44C130.392 179.44 131.33 178.334 131.33 176.92ZM136.49 173.798V174.582C136.392 174.568 136.28 174.554 136.07 174.554C135.258 174.554 134.404 175.114 134.404 176.654V180H133.592V173.854H134.376V175.016C134.628 174.372 135.16 173.77 136.042 173.77C136.252 173.77 136.378 173.784 136.49 173.798ZM142.263 181.176C141.955 181.974 141.409 182.534 140.359 182.534C140.093 182.534 139.771 182.492 139.463 182.408V181.666C139.757 181.764 140.023 181.82 140.317 181.82C141.003 181.82 141.297 181.442 141.549 180.826L141.885 180.042L139.421 173.854H140.331L142.319 179.034L144.321 173.854H145.189L142.263 181.176ZM145.693 176.92C145.693 175.058 147.093 173.686 148.857 173.686C150.607 173.686 152.021 175.058 152.021 176.92C152.021 178.81 150.607 180.168 148.857 180.168C147.093 180.168 145.693 178.81 145.693 176.92ZM151.167 176.92C151.167 175.52 150.229 174.414 148.857 174.414C147.471 174.414 146.533 175.52 146.533 176.92C146.533 178.334 147.471 179.44 148.857 179.44C150.229 179.44 151.167 178.334 151.167 176.92ZM156.006 180.168C154.27 180.168 153.374 179.104 153.374 177.816V173.854H154.214V177.732C154.214 178.838 154.97 179.44 156.006 179.44C157.028 179.44 157.77 178.894 157.77 177.774V173.854H158.61V177.816C158.61 179.104 157.728 180.168 156.006 180.168ZM163.249 173.798V174.582C163.151 174.568 163.039 174.554 162.829 174.554C162.017 174.554 161.163 175.114 161.163 176.654V180H160.351V173.854H161.135V175.016C161.387 174.372 161.919 173.77 162.801 173.77C163.011 173.77 163.137 173.784 163.249 173.798ZM167.546 176.934C167.546 178.334 168.498 179.44 169.87 179.44C170.822 179.44 171.564 178.894 171.928 178.096L172.614 178.446C172.138 179.51 171.13 180.168 169.87 180.168C168.106 180.168 166.706 178.81 166.706 176.934C166.706 175.058 168.106 173.686 169.87 173.686C171.116 173.686 172.138 174.316 172.628 175.394L171.928 175.758C171.578 174.96 170.822 174.414 169.87 174.414C168.498 174.414 167.546 175.52 167.546 176.934ZM173.477 176.92C173.477 175.058 174.877 173.686 176.641 173.686C178.391 173.686 179.805 175.058 179.805 176.92C179.805 178.81 178.391 180.168 176.641 180.168C174.877 180.168 173.477 178.81 173.477 176.92ZM178.951 176.92C178.951 175.52 178.013 174.414 176.641 174.414C175.255 174.414 174.317 175.52 174.317 176.92C174.317 178.334 175.255 179.44 176.641 179.44C178.013 179.44 178.951 178.334 178.951 176.92ZM182.04 175.492V180H181.214V173.854H182.04V174.708C182.586 174.064 183.356 173.686 184.112 173.686C185.078 173.686 185.75 174.12 186.072 174.848C186.828 173.98 187.598 173.686 188.354 173.686C189.712 173.686 190.566 174.526 190.566 175.842V180H189.726V176.052C189.726 174.946 189.054 174.442 188.242 174.442C187.486 174.442 186.8 174.904 186.282 175.506C186.282 175.506 186.31 175.87 186.31 175.982V180H185.47V176.052C185.47 174.946 184.798 174.442 183.986 174.442C183.216 174.442 182.572 174.862 182.04 175.492ZM193.131 178.796V182.436H192.305V173.854H193.131V175.072C193.523 174.274 194.447 173.686 195.511 173.686C197.261 173.686 198.605 175.058 198.605 176.92C198.605 178.81 197.247 180.168 195.497 180.168C194.433 180.168 193.537 179.594 193.131 178.796ZM195.441 174.414C194.069 174.414 193.117 175.52 193.117 176.92C193.117 178.334 194.069 179.44 195.441 179.44C196.799 179.44 197.765 178.334 197.765 176.92C197.765 175.52 196.799 174.414 195.441 174.414ZM205.101 180V178.796C204.709 179.594 203.813 180.168 202.735 180.168C200.985 180.168 199.641 178.81 199.641 176.92C199.641 175.058 200.985 173.686 202.721 173.686C203.799 173.686 204.723 174.274 205.115 175.072V173.854H205.941V180H205.101ZM202.805 174.414C201.433 174.414 200.481 175.52 200.481 176.92C200.481 178.334 201.433 179.44 202.805 179.44C204.177 179.44 205.129 178.334 205.129 176.92C205.129 175.52 204.177 174.414 202.805 174.414ZM208.559 175.492V180H207.733V173.854H208.559V174.708C209.119 174.064 209.931 173.686 210.701 173.686C212.045 173.686 212.955 174.526 212.955 175.842V180H212.129V176.066C212.129 174.932 211.387 174.442 210.575 174.442C209.805 174.442 209.091 174.862 208.559 175.492ZM216.715 181.176C216.407 181.974 215.861 182.534 214.811 182.534C214.545 182.534 214.223 182.492 213.915 182.408V181.666C214.209 181.764 214.475 181.82 214.769 181.82C215.455 181.82 215.749 181.442 216.001 180.826L216.337 180.042L213.873 173.854H214.783L216.771 179.034L218.773 173.854H219.641L216.715 181.176Z" fill="#2F4922"/>
<path d="M122.2 84H132.16V85.12H127.8V98H126.56V85.12H122.2V84ZM138.741 98V96.28C138.181 97.42 136.901 98.24 135.361 98.24C132.861 98.24 130.941 96.3 130.941 93.6C130.941 90.94 132.861 88.98 135.341 88.98C136.881 88.98 138.201 89.82 138.761 90.96V89.22H139.941V98H138.741ZM135.461 90.02C133.501 90.02 132.141 91.6 132.141 93.6C132.141 95.62 133.501 97.2 135.461 97.2C137.421 97.2 138.781 95.62 138.781 93.6C138.781 91.6 137.421 90.02 135.461 90.02ZM146.441 89.14V90.26C146.301 90.24 146.141 90.22 145.841 90.22C144.681 90.22 143.461 91.02 143.461 93.22V98H142.301V89.22H143.421V90.88C143.781 89.96 144.541 89.1 145.801 89.1C146.101 89.1 146.281 89.12 146.441 89.14ZM154.717 89.22H155.897V97.8C155.897 100.52 153.717 101.66 151.377 101.66C150.137 101.66 148.897 101.4 147.877 100.86L147.937 99.66C148.857 100.2 150.077 100.6 151.337 100.6C153.177 100.6 154.717 99.76 154.717 97.56V96.26C154.157 97.4 152.857 98.22 151.337 98.22C148.837 98.22 146.917 96.3 146.917 93.6C146.917 90.92 148.837 88.98 151.317 88.98C152.857 88.98 154.177 89.82 154.717 90.96V89.22ZM151.417 90.02C149.477 90.02 148.097 91.58 148.097 93.6C148.097 95.62 149.477 97.2 151.417 97.2C153.377 97.2 154.737 95.62 154.737 93.6C154.737 91.58 153.377 90.02 151.417 90.02ZM165.298 95.44L166.298 95.94C165.358 97.6 163.838 98.24 162.178 98.24C159.578 98.24 157.718 96.3 157.718 93.62C157.718 90.94 159.678 88.98 162.178 88.98C164.518 88.98 166.598 90.64 166.598 93.92V93.98H158.938C159.078 95.8 160.358 97.18 162.198 97.18C163.438 97.18 164.518 96.72 165.298 95.44ZM162.178 90.02C160.418 90.02 159.158 91.32 158.958 93.04H165.338C165.178 91.34 163.938 90.02 162.178 90.02ZM168.7 85.54H169.9V89.22H172.06V90.22H169.9V96.16C169.9 96.86 170.26 97.12 170.9 97.12C171.28 97.12 171.78 97.02 172.06 96.92V97.94C171.74 98.02 171.14 98.14 170.68 98.14C169.42 98.14 168.7 97.54 168.7 96.34V90.22H167.22V89.22H168.7V85.54ZM180.303 99.68C179.863 100.82 179.083 101.62 177.583 101.62C177.203 101.62 176.743 101.56 176.303 101.44V100.38C176.723 100.52 177.103 100.6 177.523 100.6C178.503 100.6 178.923 100.06 179.283 99.18L179.763 98.06L176.243 89.22H177.543L180.383 96.62L183.243 89.22H184.483L180.303 99.68ZM185.003 93.6C185.003 90.94 187.003 88.98 189.523 88.98C192.023 88.98 194.043 90.94 194.043 93.6C194.043 96.3 192.023 98.24 189.523 98.24C187.003 98.24 185.003 96.3 185.003 93.6ZM192.823 93.6C192.823 91.6 191.483 90.02 189.523 90.02C187.543 90.02 186.203 91.6 186.203 93.6C186.203 95.62 187.543 97.2 189.523 97.2C191.483 97.2 192.823 95.62 192.823 93.6ZM199.536 98.24C197.056 98.24 195.776 96.72 195.776 94.88V89.22H196.976V94.76C196.976 96.34 198.056 97.2 199.536 97.2C200.996 97.2 202.056 96.42 202.056 94.82V89.22H203.256V94.88C203.256 96.72 201.996 98.24 199.536 98.24ZM209.683 89.14V90.26C209.543 90.24 209.383 90.22 209.083 90.22C207.923 90.22 206.703 91.02 206.703 93.22V98H205.543V89.22H206.663V90.88C207.023 89.96 207.783 89.1 209.043 89.1C209.343 89.1 209.523 89.12 209.683 89.14ZM214.922 86.06C214.922 85.48 215.382 85.02 215.942 85.02C216.522 85.02 216.982 85.48 216.982 86.06C216.982 86.62 216.522 87.08 215.942 87.08C215.382 87.08 214.922 86.62 214.922 86.06ZM215.442 99.34V90.22H214.042V89.22H216.622V99.4C216.622 101.14 215.502 101.6 214.482 101.6C214.102 101.6 213.742 101.52 213.462 101.4V100.42C213.742 100.52 214.042 100.58 214.302 100.58C214.982 100.58 215.442 100.18 215.442 99.34ZM218.441 93.6C218.441 90.94 220.441 88.98 222.961 88.98C225.461 88.98 227.481 90.94 227.481 93.6C227.481 96.3 225.461 98.24 222.961 98.24C220.441 98.24 218.441 96.3 218.441 93.6ZM226.261 93.6C226.261 91.6 224.921 90.02 222.961 90.02C220.981 90.02 219.641 91.6 219.641 93.6C219.641 95.62 220.981 97.2 222.961 97.2C224.921 97.2 226.261 95.62 226.261 93.6ZM238.293 93.6C238.293 96.3 236.353 98.24 233.853 98.24C232.333 98.24 231.053 97.42 230.473 96.28V98H229.293V84H230.473V90.96C231.033 89.82 232.353 88.98 233.873 88.98C236.373 88.98 238.293 90.94 238.293 93.6ZM233.773 90.02C231.813 90.02 230.453 91.6 230.453 93.6C230.453 95.62 231.813 97.2 233.773 97.2C235.713 97.2 237.093 95.62 237.093 93.6C237.093 91.6 235.713 90.02 233.773 90.02ZM123.204 105.278H124.044V107.854H125.556V108.554H124.044V112.712C124.044 113.202 124.296 113.384 124.744 113.384C125.01 113.384 125.36 113.314 125.556 113.244V113.958C125.332 114.014 124.912 114.098 124.59 114.098C123.708 114.098 123.204 113.678 123.204 112.838V108.554H122.168V107.854H123.204V105.278ZM126.184 110.92C126.184 109.058 127.584 107.686 129.348 107.686C131.098 107.686 132.512 109.058 132.512 110.92C132.512 112.81 131.098 114.168 129.348 114.168C127.584 114.168 126.184 112.81 126.184 110.92ZM131.658 110.92C131.658 109.52 130.72 108.414 129.348 108.414C127.962 108.414 127.024 109.52 127.024 110.92C127.024 112.334 127.962 113.44 129.348 113.44C130.72 113.44 131.658 112.334 131.658 110.92ZM137.282 105.278H138.122V107.854H139.634V108.554H138.122V112.712C138.122 113.202 138.374 113.384 138.822 113.384C139.088 113.384 139.438 113.314 139.634 113.244V113.958C139.41 114.014 138.99 114.098 138.668 114.098C137.786 114.098 137.282 113.678 137.282 112.838V108.554H136.246V107.854H137.282V105.278ZM141.589 109.492V114H140.763V104.2H141.589V108.708C142.149 108.064 142.975 107.686 143.731 107.686C145.075 107.686 145.985 108.526 145.985 109.842V114H145.159V110.066C145.159 108.932 144.417 108.442 143.605 108.442C142.835 108.442 142.121 108.862 141.589 109.492ZM152.653 112.208L153.353 112.558C152.695 113.72 151.631 114.168 150.469 114.168C148.649 114.168 147.347 112.81 147.347 110.934C147.347 109.058 148.719 107.686 150.469 107.686C152.107 107.686 153.563 108.848 153.563 111.144V111.186H148.201C148.299 112.46 149.195 113.426 150.483 113.426C151.351 113.426 152.107 113.104 152.653 112.208ZM150.469 108.414C149.237 108.414 148.355 109.324 148.215 110.528H152.681C152.569 109.338 151.701 108.414 150.469 108.414ZM160.802 107.798V108.582C160.704 108.568 160.592 108.554 160.382 108.554C159.57 108.554 158.716 109.114 158.716 110.654V114H157.904V107.854H158.688V109.016C158.94 108.372 159.472 107.77 160.354 107.77C160.564 107.77 160.69 107.784 160.802 107.798ZM162.696 106.356C162.29 106.356 161.968 106.034 161.968 105.642C161.968 105.236 162.29 104.914 162.696 104.914C163.088 104.914 163.424 105.236 163.424 105.642C163.424 106.034 163.088 106.356 162.696 106.356ZM162.332 114V108.554H161.366V107.854H163.172V114H162.332ZM170.047 107.854H170.873V113.86C170.873 115.764 169.347 116.562 167.709 116.562C166.841 116.562 165.973 116.38 165.259 116.002L165.301 115.162C165.945 115.54 166.799 115.82 167.681 115.82C168.969 115.82 170.047 115.232 170.047 113.692V112.782C169.655 113.58 168.745 114.154 167.681 114.154C165.931 114.154 164.587 112.81 164.587 110.92C164.587 109.044 165.931 107.686 167.667 107.686C168.745 107.686 169.669 108.274 170.047 109.072V107.854ZM167.737 108.414C166.379 108.414 165.413 109.506 165.413 110.92C165.413 112.334 166.379 113.44 167.737 113.44C169.109 113.44 170.061 112.334 170.061 110.92C170.061 109.506 169.109 108.414 167.737 108.414ZM173.491 109.492V114H172.665V104.2H173.491V108.708C174.051 108.064 174.877 107.686 175.633 107.686C176.977 107.686 177.887 108.526 177.887 109.842V114H177.061V110.066C177.061 108.932 176.319 108.442 175.507 108.442C174.737 108.442 174.023 108.862 173.491 109.492ZM179.924 105.278H180.764V107.854H182.276V108.554H180.764V112.712C180.764 113.202 181.016 113.384 181.464 113.384C181.73 113.384 182.08 113.314 182.276 113.244V113.958C182.052 114.014 181.632 114.098 181.31 114.098C180.428 114.098 179.924 113.678 179.924 112.838V108.554H178.888V107.854H179.924V105.278ZM187.214 112.796V116.436H186.388V107.854H187.214V109.072C187.606 108.274 188.53 107.686 189.594 107.686C191.344 107.686 192.688 109.058 192.688 110.92C192.688 112.81 191.33 114.168 189.58 114.168C188.516 114.168 187.62 113.594 187.214 112.796ZM189.524 108.414C188.152 108.414 187.2 109.52 187.2 110.92C187.2 112.334 188.152 113.44 189.524 113.44C190.882 113.44 191.848 112.334 191.848 110.92C191.848 109.52 190.882 108.414 189.524 108.414ZM199.03 112.208L199.73 112.558C199.072 113.72 198.008 114.168 196.846 114.168C195.026 114.168 193.724 112.81 193.724 110.934C193.724 109.058 195.096 107.686 196.846 107.686C198.484 107.686 199.94 108.848 199.94 111.144V111.186H194.578C194.676 112.46 195.572 113.426 196.86 113.426C197.728 113.426 198.484 113.104 199.03 112.208ZM196.846 108.414C195.614 108.414 194.732 109.324 194.592 110.528H199.058C198.946 109.338 198.078 108.414 196.846 108.414ZM200.919 110.92C200.919 109.058 202.319 107.686 204.083 107.686C205.833 107.686 207.247 109.058 207.247 110.92C207.247 112.81 205.833 114.168 204.083 114.168C202.319 114.168 200.919 112.81 200.919 110.92ZM206.393 110.92C206.393 109.52 205.455 108.414 204.083 108.414C202.697 108.414 201.759 109.52 201.759 110.92C201.759 112.334 202.697 113.44 204.083 113.44C205.455 113.44 206.393 112.334 206.393 110.92ZM209.482 112.796V116.436H208.656V107.854H209.482V109.072C209.874 108.274 210.798 107.686 211.862 107.686C213.612 107.686 214.956 109.058 214.956 110.92C214.956 112.81 213.598 114.168 211.848 114.168C210.784 114.168 209.888 113.594 209.482 112.796ZM211.792 108.414C210.42 108.414 209.468 109.52 209.468 110.92C209.468 112.334 210.42 113.44 211.792 113.44C213.15 113.44 214.116 112.334 214.116 110.92C214.116 109.52 213.15 108.414 211.792 108.414ZM216.482 114V104.9H215.502V104.2H217.308V114H216.482ZM224.022 112.208L224.722 112.558C224.064 113.72 223 114.168 221.838 114.168C220.018 114.168 218.716 112.81 218.716 110.934C218.716 109.058 220.088 107.686 221.838 107.686C223.476 107.686 224.932 108.848 224.932 111.144V111.186H219.57C219.668 112.46 220.564 113.426 221.852 113.426C222.72 113.426 223.476 113.104 224.022 112.208ZM221.838 108.414C220.606 108.414 219.724 109.324 219.584 110.528H224.05C223.938 109.338 223.07 108.414 221.838 108.414Z" fill="#09223B"/>
<path d="M130.88 19.12L130.18 20.06C129.48 19.38 128.26 18.84 127.08 18.84C125.52 18.84 124.28 19.74 124.28 21.16C124.28 22.2 124.84 22.94 126.4 23.76L127.76 24.5C130.02 25.7 131.12 26.68 131.12 28.5C131.12 30.36 129.62 32.24 126.76 32.24C124.82 32.24 123.38 31.52 122.46 30.62L123.18 29.68C124.18 30.66 125.42 31.16 126.78 31.16C128.68 31.16 129.86 29.92 129.86 28.58C129.86 27.1 128.9 26.48 126.98 25.46L125.84 24.84C124.02 23.88 123.02 22.82 123.02 21.26C123.02 19.06 124.9 17.76 127.04 17.76C128.64 17.76 129.96 18.36 130.88 19.12ZM132.464 27.6C132.464 24.94 134.464 22.98 136.984 22.98C139.484 22.98 141.504 24.94 141.504 27.6C141.504 30.3 139.484 32.24 136.984 32.24C134.464 32.24 132.464 30.3 132.464 27.6ZM140.284 27.6C140.284 25.6 138.944 24.02 136.984 24.02C135.004 24.02 133.664 25.6 133.664 27.6C133.664 29.62 135.004 31.2 136.984 31.2C138.944 31.2 140.284 29.62 140.284 27.6ZM146.997 32.24C144.517 32.24 143.237 30.72 143.237 28.88V23.22H144.437V28.76C144.437 30.34 145.517 31.2 146.997 31.2C148.457 31.2 149.517 30.42 149.517 28.82V23.22H150.717V28.88C150.717 30.72 149.457 32.24 146.997 32.24ZM157.144 23.14V24.26C157.004 24.24 156.844 24.22 156.544 24.22C155.384 24.22 154.164 25.02 154.164 27.22V32H153.004V23.22H154.124V24.88C154.484 23.96 155.244 23.1 156.504 23.1C156.804 23.1 156.984 23.12 157.144 23.14ZM158.801 27.62C158.801 29.62 160.161 31.2 162.121 31.2C163.481 31.2 164.541 30.42 165.061 29.28L166.041 29.78C165.361 31.3 163.921 32.24 162.121 32.24C159.601 32.24 157.601 30.3 157.601 27.62C157.601 24.94 159.601 22.98 162.121 22.98C163.901 22.98 165.361 23.88 166.061 25.42L165.061 25.94C164.561 24.8 163.481 24.02 162.121 24.02C160.161 24.02 158.801 25.6 158.801 27.62ZM174.654 29.44L175.654 29.94C174.714 31.6 173.194 32.24 171.534 32.24C168.934 32.24 167.074 30.3 167.074 27.62C167.074 24.94 169.034 22.98 171.534 22.98C173.874 22.98 175.954 24.64 175.954 27.92V27.98H168.294C168.434 29.8 169.714 31.18 171.554 31.18C172.794 31.18 173.874 30.72 174.654 29.44ZM171.534 24.02C169.774 24.02 168.514 25.32 168.314 27.04H174.694C174.534 25.34 173.294 24.02 171.534 24.02ZM127.908 43.072V41.854H128.748V50.436H127.908V46.796C127.516 47.594 126.62 48.168 125.542 48.168C123.792 48.168 122.448 46.81 122.448 44.92C122.448 43.058 123.792 41.686 125.528 41.686C126.606 41.686 127.53 42.274 127.908 43.072ZM125.612 42.414C124.24 42.414 123.288 43.52 123.288 44.92C123.288 46.334 124.24 47.44 125.612 47.44C126.984 47.44 127.936 46.334 127.936 44.92C127.936 43.52 126.984 42.414 125.612 42.414ZM133.116 48.168C131.38 48.168 130.484 47.104 130.484 45.816V41.854H131.324V45.732C131.324 46.838 132.08 47.44 133.116 47.44C134.138 47.44 134.88 46.894 134.88 45.774V41.854H135.72V45.816C135.72 47.104 134.838 48.168 133.116 48.168ZM142.543 48V46.796C142.151 47.594 141.255 48.168 140.177 48.168C138.427 48.168 137.083 46.81 137.083 44.92C137.083 43.058 138.427 41.686 140.163 41.686C141.241 41.686 142.165 42.274 142.557 43.072V41.854H143.383V48H142.543ZM140.247 42.414C138.875 42.414 137.923 43.52 137.923 44.92C137.923 46.334 138.875 47.44 140.247 47.44C141.619 47.44 142.571 46.334 142.571 44.92C142.571 43.52 141.619 42.414 140.247 42.414ZM145.288 48V38.9H144.308V38.2H146.114V48H145.288ZM148.642 40.356C148.236 40.356 147.914 40.034 147.914 39.642C147.914 39.236 148.236 38.914 148.642 38.914C149.034 38.914 149.37 39.236 149.37 39.642C149.37 40.034 149.034 40.356 148.642 40.356ZM148.278 48V42.554H147.312V41.854H149.118V48H148.278ZM151.289 39.278H152.129V41.854H153.641V42.554H152.129V46.712C152.129 47.202 152.381 47.384 152.829 47.384C153.095 47.384 153.445 47.314 153.641 47.244V47.958C153.417 48.014 152.997 48.098 152.675 48.098C151.793 48.098 151.289 47.678 151.289 46.838V42.554H150.253V41.854H151.289V39.278ZM156.926 49.176C156.618 49.974 156.072 50.534 155.022 50.534C154.756 50.534 154.434 50.492 154.126 50.408V49.666C154.42 49.764 154.686 49.82 154.98 49.82C155.666 49.82 155.96 49.442 156.212 48.826L156.548 48.042L154.084 41.854H154.994L156.982 47.034L158.984 41.854H159.852L156.926 49.176ZM164.166 44.934C164.166 46.334 165.118 47.44 166.49 47.44C167.442 47.44 168.184 46.894 168.548 46.096L169.234 46.446C168.758 47.51 167.75 48.168 166.49 48.168C164.726 48.168 163.326 46.81 163.326 44.934C163.326 43.058 164.726 41.686 166.49 41.686C167.736 41.686 168.758 42.316 169.248 43.394L168.548 43.758C168.198 42.96 167.442 42.414 166.49 42.414C165.118 42.414 164.166 43.52 164.166 44.934ZM175.557 48V46.796C175.165 47.594 174.269 48.168 173.191 48.168C171.441 48.168 170.097 46.81 170.097 44.92C170.097 43.058 171.441 41.686 173.177 41.686C174.255 41.686 175.179 42.274 175.571 43.072V41.854H176.397V48H175.557ZM173.261 42.414C171.889 42.414 170.937 43.52 170.937 44.92C170.937 46.334 171.889 47.44 173.261 47.44C174.633 47.44 175.585 46.334 175.585 44.92C175.585 43.52 174.633 42.414 173.261 42.414ZM179.015 43.492V48H178.189V41.854H179.015V42.708C179.575 42.064 180.387 41.686 181.157 41.686C182.501 41.686 183.411 42.526 183.411 43.842V48H182.585V44.066C182.585 42.932 181.843 42.442 181.031 42.442C180.261 42.442 179.547 42.862 179.015 43.492ZM190.247 43.072V38.2H191.073V48H190.233V46.796C189.841 47.594 188.945 48.168 187.867 48.168C186.117 48.168 184.773 46.81 184.773 44.92C184.773 43.058 186.117 41.686 187.853 41.686C188.931 41.686 189.855 42.274 190.247 43.072ZM187.937 42.414C186.565 42.414 185.613 43.52 185.613 44.92C185.613 46.334 186.565 47.44 187.937 47.44C189.309 47.44 190.261 46.334 190.261 44.92C190.261 43.52 189.309 42.414 187.937 42.414ZM193.607 40.356C193.201 40.356 192.879 40.034 192.879 39.642C192.879 39.236 193.201 38.914 193.607 38.914C193.999 38.914 194.335 39.236 194.335 39.642C194.335 40.034 193.999 40.356 193.607 40.356ZM193.243 48V42.554H192.277V41.854H194.083V48H193.243ZM200.972 43.072V38.2H201.798V48H200.958V46.796C200.566 47.594 199.67 48.168 198.592 48.168C196.842 48.168 195.498 46.81 195.498 44.92C195.498 43.058 196.842 41.686 198.578 41.686C199.656 41.686 200.58 42.274 200.972 43.072ZM198.662 42.414C197.29 42.414 196.338 43.52 196.338 44.92C196.338 46.334 197.29 47.44 198.662 47.44C200.034 47.44 200.986 46.334 200.986 44.92C200.986 43.52 200.034 42.414 198.662 42.414ZM208.673 48V46.796C208.281 47.594 207.385 48.168 206.307 48.168C204.557 48.168 203.213 46.81 203.213 44.92C203.213 43.058 204.557 41.686 206.293 41.686C207.371 41.686 208.295 42.274 208.687 43.072V41.854H209.513V48H208.673ZM206.377 42.414C205.005 42.414 204.053 43.52 204.053 44.92C204.053 46.334 205.005 47.44 206.377 47.44C207.749 47.44 208.701 46.334 208.701 44.92C208.701 43.52 207.749 42.414 206.377 42.414ZM211.683 39.278H212.523V41.854H214.035V42.554H212.523V46.712C212.523 47.202 212.775 47.384 213.223 47.384C213.489 47.384 213.839 47.314 214.035 47.244V47.958C213.811 48.014 213.391 48.098 213.069 48.098C212.187 48.098 211.683 47.678 211.683 46.838V42.554H210.647V41.854H211.683V39.278ZM219.969 46.208L220.669 46.558C220.011 47.72 218.947 48.168 217.785 48.168C215.965 48.168 214.663 46.81 214.663 44.934C214.663 43.058 216.035 41.686 217.785 41.686C219.423 41.686 220.879 42.848 220.879 45.144V45.186H215.517C215.615 46.46 216.511 47.426 217.799 47.426C218.667 47.426 219.423 47.104 219.969 46.208ZM217.785 42.414C216.553 42.414 215.671 43.324 215.531 44.528H219.997C219.885 43.338 219.017 42.414 217.785 42.414ZM223.873 47.468C224.755 47.468 225.301 47.006 225.301 46.432C225.301 45.872 224.937 45.606 224.153 45.312L223.397 45.032C222.375 44.64 221.969 44.178 221.969 43.408C221.969 42.428 222.809 41.686 224.069 41.686C224.797 41.686 225.539 41.938 226.043 42.386L225.623 42.988C225.203 42.624 224.643 42.372 224.055 42.372C223.299 42.372 222.781 42.764 222.781 43.31C222.781 43.688 222.949 44.01 223.663 44.29L224.531 44.612C225.665 45.06 226.155 45.522 226.155 46.404C226.155 47.3 225.371 48.168 223.887 48.168C223.061 48.168 222.235 47.888 221.689 47.412L222.137 46.782C222.599 47.216 223.271 47.468 223.873 47.468ZM235.428 46.208L236.128 46.558C235.47 47.72 234.406 48.168 233.244 48.168C231.424 48.168 230.122 46.81 230.122 44.934C230.122 43.058 231.494 41.686 233.244 41.686C234.882 41.686 236.338 42.848 236.338 45.144V45.186H230.976C231.074 46.46 231.97 47.426 233.258 47.426C234.126 47.426 234.882 47.104 235.428 46.208ZM233.244 42.414C232.012 42.414 231.13 43.324 230.99 44.528H235.456C235.344 43.338 234.476 42.414 233.244 42.414ZM241.212 48V42.554H238.818V48H237.992V42.554H236.942V41.854H237.992V39.88C237.992 38.662 238.79 38.312 239.49 38.312C239.756 38.312 240.008 38.368 240.204 38.438V39.152C240.008 39.068 239.812 39.04 239.616 39.04C239.14 39.04 238.818 39.32 238.818 39.908V41.854H241.212V40.104C241.212 38.634 242.22 38.032 243.214 38.032C243.816 38.032 244.39 38.256 244.796 38.536L244.362 39.166C244.068 38.956 243.62 38.788 243.256 38.788C242.612 38.788 242.052 39.166 242.052 40.16V41.854H245.286V48H244.446V42.554H242.052V48H241.212ZM247.539 44.934C247.539 46.334 248.491 47.44 249.863 47.44C250.815 47.44 251.557 46.894 251.921 46.096L252.607 46.446C252.131 47.51 251.123 48.168 249.863 48.168C248.099 48.168 246.699 46.81 246.699 44.934C246.699 43.058 248.099 41.686 249.863 41.686C251.109 41.686 252.131 42.316 252.621 43.394L251.921 43.758C251.571 42.96 250.815 42.414 249.863 42.414C248.491 42.414 247.539 43.52 247.539 44.934ZM254.589 40.356C254.183 40.356 253.861 40.034 253.861 39.642C253.861 39.236 254.183 38.914 254.589 38.914C254.981 38.914 255.317 39.236 255.317 39.642C255.317 40.034 254.981 40.356 254.589 40.356ZM254.225 48V42.554H253.259V41.854H255.065V48H254.225ZM261.787 46.208L262.487 46.558C261.829 47.72 260.765 48.168 259.603 48.168C257.783 48.168 256.481 46.81 256.481 44.934C256.481 43.058 257.853 41.686 259.603 41.686C261.241 41.686 262.697 42.848 262.697 45.144V45.186H257.335C257.433 46.46 258.329 47.426 259.617 47.426C260.485 47.426 261.241 47.104 261.787 46.208ZM259.603 42.414C258.371 42.414 257.489 43.324 257.349 44.528H261.815C261.703 43.338 260.835 42.414 259.603 42.414ZM264.879 43.492V48H264.053V41.854H264.879V42.708C265.439 42.064 266.251 41.686 267.021 41.686C268.365 41.686 269.275 42.526 269.275 43.842V48H268.449V44.066C268.449 42.932 267.707 42.442 266.895 42.442C266.125 42.442 265.411 42.862 264.879 43.492ZM271.311 39.278H272.151V41.854H273.663V42.554H272.151V46.712C272.151 47.202 272.403 47.384 272.851 47.384C273.117 47.384 273.467 47.314 273.663 47.244V47.958C273.439 48.014 273.019 48.098 272.697 48.098C271.815 48.098 271.311 47.678 271.311 46.838V42.554H270.275V41.854H271.311V39.278ZM274.904 48V38.9H273.924V38.2H275.73V48H274.904ZM279.672 49.176C279.364 49.974 278.818 50.534 277.768 50.534C277.502 50.534 277.18 50.492 276.872 50.408V49.666C277.166 49.764 277.432 49.82 277.726 49.82C278.412 49.82 278.706 49.442 278.958 48.826L279.294 48.042L276.83 41.854H277.74L279.728 47.034L281.73 41.854H282.598L279.672 49.176Z" fill="#5D3B09"/>
<path d="M181.582 200.743C229.526 200.743 268.383 239.6 268.383 287.544H94.7822C94.7822 239.6 133.639 200.743 181.582 200.743Z" fill="#E8F3FF"/>
<path d="M108.71 269.234L110.283 287.544H202.603V282.105L177.743 282.119L176.618 269.234H108.71Z" fill="#BAD4D8"/>
<path d="M108.379 239.214H171.431L173.479 241.248L176.856 281.258H111.756L110.414 279.902L107.023 240.57L108.379 239.214Z" fill="white"/>
<path d="M171.248 240.075C172.075 240.115 172.767 240.739 172.875 241.567L176.13 279.542C176.13 279.881 176.036 280.206 175.859 280.491C175.615 280.64 175.33 280.735 175.045 280.762H112.576C111.749 280.722 111.057 280.098 110.949 279.271L107.694 241.295C107.694 240.956 107.789 240.766 107.965 240.482C108.169 240.238 108.467 240.102 108.779 240.075H171.248ZM171.248 238.719H108.765C107.423 238.705 106.324 239.776 106.311 241.119C106.311 241.228 106.311 241.336 106.324 241.431L109.579 279.406C109.755 280.925 111.03 282.092 112.563 282.119H175.059C176.402 282.132 177.5 281.061 177.514 279.718C177.514 279.61 177.514 279.501 177.5 279.406L174.245 241.431C174.028 239.926 172.781 238.8 171.262 238.719H171.248Z" fill="#5B696B"/>
<path d="M184.376 249.745C184.037 250.057 183.44 250.002 183.169 250.382C182.898 250.762 183.006 250.898 182.871 251.128C182.694 251.372 182.45 251.562 182.193 251.711C181.596 252.159 181.325 252.918 181.501 253.637C181.962 255.224 183.101 258.099 183.006 259.944L183.359 267.091L190.995 265.993C190.995 265.993 189.014 259.767 189.272 258.235C189.326 256.811 189.842 255.455 190.737 254.342L191.985 252.145C192.242 251.779 192.08 250.355 192.12 249.921C191.985 249.04 190.764 249.758 190.764 250.382L190.642 251.304L189.964 252.186C189.123 250.748 189.964 248.741 189.042 247.331C188.675 246.775 187.943 246.612 187.373 246.937C187.048 247.181 186.899 247.67 186.505 247.805C185.882 247.805 185.149 247.805 184.851 248.483C184.674 248.904 184.715 249.433 184.376 249.745Z" fill="#A96C3F"/>
<path d="M138.182 298.394H94.7822V367.563H138.182V298.394Z" fill="#BAD4D8"/>
<path d="M138.183 311.956H101.564V367.563H138.183V311.956Z" fill="#526A6E"/>
<path d="M125.976 362.138H124.62V367.563H125.976V362.138Z" fill="#D8DFE1"/>
<path d="M108.345 362.138H106.989V367.563H108.345V362.138Z" fill="#D8DFE1"/>
<path d="M125.298 372.988C127.171 372.988 128.689 371.47 128.689 369.597C128.689 367.724 127.171 366.206 125.298 366.206C123.426 366.206 121.908 367.724 121.908 369.597C121.908 371.47 123.426 372.988 125.298 372.988Z" fill="#B0BFBC"/>
<path d="M125.298 371.292C126.235 371.292 126.994 370.533 126.994 369.597C126.994 368.661 126.235 367.902 125.298 367.902C124.362 367.902 123.603 368.661 123.603 369.597C123.603 370.533 124.362 371.292 125.298 371.292Z" fill="#546366"/>
<path d="M107.667 372.988C109.54 372.988 111.058 371.47 111.058 369.597C111.058 367.724 109.54 366.206 107.667 366.206C105.794 366.206 104.276 367.724 104.276 369.597C104.276 371.47 105.794 372.988 107.667 372.988Z" fill="#B0BFBC"/>
<path d="M107.667 371.292C108.603 371.292 109.362 370.533 109.362 369.597C109.362 368.661 108.603 367.902 107.667 367.902C106.73 367.902 105.971 368.661 105.971 369.597C105.971 370.533 106.73 371.292 107.667 371.292Z" fill="#546366"/>
<path d="M128.689 361.799H104.276V364.85H128.689V361.799Z" fill="#B0BFBC"/>
<path d="M128.689 320.094H104.276V362.137H128.689V320.094Z" fill="#D8DFE1"/>
<path d="M128.689 344.506H106.989V349.931H128.689V344.506Z" fill="#546366"/>
<path d="M109.701 348.575C110.45 348.575 111.057 347.968 111.057 347.219C111.057 346.47 110.45 345.863 109.701 345.863C108.952 345.863 108.345 346.47 108.345 347.219C108.345 347.968 108.952 348.575 109.701 348.575Z" fill="#D2FF8A"/>
<path d="M119.195 324.162H104.276V325.519H119.195V324.162Z" fill="#A3A3A3"/>
<path d="M119.195 326.875H104.276V328.231H119.195V326.875Z" fill="#A3A3A3"/>
<path d="M119.195 329.587H104.276V330.944H119.195V329.587Z" fill="#A3A3A3"/>
<path d="M119.195 332.3H104.276V333.656H119.195V332.3Z" fill="#A3A3A3"/>
<path d="M119.195 335.012H104.276V336.369H119.195V335.012Z" fill="#A3A3A3"/>
<path fill-rule="evenodd" clip-rule="evenodd" d="M218.201 287.544H94.7822V298.394H218.201V287.544Z" fill="#A0B4B7"/>
<path d="M182.858 261.775H190.806L192.609 270.713C192.718 271.269 193.26 271.635 193.83 271.513C194.237 271.431 194.549 271.119 194.63 270.713L198.143 256.689C198.997 253.23 201.561 250.45 204.924 249.311C206.552 246.449 209.427 244.537 212.695 244.144C212.601 244.144 225.933 241.919 232.158 264.379C239.441 290.744 233.65 307.779 233.65 307.779L202.456 295.573V286.079H182.858V261.775Z" fill="#BEBF8C"/>
<path d="M212.288 240.075C212.83 239.071 213.237 237.986 213.467 236.86C215.773 225.522 201.844 216.91 192.757 225.59C192.201 226.132 191.713 226.743 191.293 227.407C189.964 229.36 189.34 231.707 189.516 234.067C189.516 235.952 189.855 236.115 188.702 238.013C188.336 238.61 187.97 238.881 187.997 239.763C187.997 240.36 188.512 240.712 189.014 241.119C189.733 241.648 189.801 241.865 189.869 243.153C189.828 244.455 190.181 245.757 190.886 246.856C192.92 248.999 195.741 246.856 198.386 249.569C199.891 251.223 201.682 252.607 203.675 253.637C203.675 253.637 206.279 245.378 213.305 244.252C212.355 243.642 211.84 242.557 211.948 241.431C211.948 240.197 212.288 240.075 212.288 240.075Z" fill="#A96C3F"/>
<path d="M190.195 229.387C191.335 229.767 192.135 232.778 194.264 231.313C195.539 230.459 198.713 230.893 197.614 234.026C197.37 234.785 197.682 235.613 198.387 236.006C198.875 235.219 199.716 234.717 200.638 234.65C202.252 234.514 203.663 235.721 203.798 237.335V237.362C204.273 239.234 204.558 242.787 212.275 242.787C212.451 239.478 217.293 239.166 216.018 234.541C214.743 229.916 216.9 229.821 214.052 227.57C212.031 225.97 211.271 223.176 208.559 222.037C205.846 220.897 205.046 222.037 203.202 221.087C200.489 219.731 199.553 220.531 197.777 221.087C195.064 221.982 195.742 223.122 191.185 223.583C187.076 224.044 188.161 228.709 190.195 229.387Z" fill="#2D1D19"/>
<path d="M218.147 328.218L228.319 370.275H224.25L213.4 328.231L218.147 328.218Z" fill="#D6CEC2"/>
<path d="M193.734 328.218L186.845 356.713H191.13L198.481 328.231L193.734 328.218Z" fill="#D6CEC2"/>
<path d="M221.185 320.094H189.34C187.273 320.094 185.597 321.77 185.597 323.837V324.488C185.597 326.555 187.273 328.231 189.34 328.231H221.185C223.252 328.231 224.928 326.555 224.928 324.488V323.837C224.928 321.77 223.252 320.094 221.185 320.094Z" fill="#6E6558"/>
<path d="M199.892 355.356L197.79 347.124H185.583L187.686 355.356H199.892Z" fill="#A96C3F"/>
<path d="M159.422 350.731L160.968 344.398H171.818L170.258 350.623L159.422 350.731Z" fill="#A96C3F"/>
<path d="M178.042 345.768L187.536 303.724H175.275C169.05 303.724 163.747 308.24 162.77 314.384L158.349 341.78C158.051 343.665 159.339 345.429 161.211 345.727C161.387 345.754 161.563 345.768 161.74 345.768H178.055H178.042Z" fill="#264666"/>
<path d="M168.766 360.781H156.56L159.082 350.731C159.191 350.257 159.611 349.931 160.099 349.931H169.647C170.231 349.931 170.692 350.392 170.692 350.976C170.692 351.043 170.692 351.111 170.678 351.179L168.779 360.781H168.766Z" fill="#DBE7E9"/>
<path d="M186.736 360.903V355.356C186.736 354.61 187.347 354 188.093 354H199.336C200.028 354 200.597 354.515 200.679 355.194L201.452 361.826C201.547 362.68 200.841 363.413 199.987 363.331L187.971 362.233C187.265 362.165 186.736 361.582 186.736 360.876V360.903Z" fill="#DBE7E9"/>
<path d="M171.003 358.408C171.315 359.642 171.233 360.944 170.772 362.138C170.189 363.752 168.656 364.837 166.934 364.85C161.034 364.904 146.115 365.013 145.98 364.85C143.077 364.674 141.491 360.402 144.949 359.656C149.75 358.855 155.501 355.885 158.959 351.179C160.939 355.709 165.713 356.211 167.612 355.004C168.494 354.407 169.687 354.638 170.284 355.519C170.433 355.736 170.528 355.967 170.582 356.211C170.704 356.902 170.976 358.354 171.003 358.408Z" fill="#6E7769"/>
<path d="M202.849 362.327C203.839 365.542 202.049 368.96 198.821 369.963C198.251 370.139 197.654 370.234 197.058 370.234C188.676 370.289 176.849 370.329 176.714 370.18C173.54 370.004 171.804 365.84 175.588 365.094C180.85 364.294 182.939 362.68 186.723 357.974C191.171 362.151 195.376 362.572 199.133 358.503C199.974 357.594 201.547 358.164 201.899 359.33C202.198 360.225 202.523 361.256 202.849 362.327Z" fill="#6E7769"/>
<path d="M197.79 349.836H181.854C180.145 349.836 178.585 348.846 177.867 347.287L165.837 321.341C165.837 321.341 158.906 306.87 169.905 303.71C184.716 299.452 202.55 295.668 202.55 295.668L233.649 307.779C231.71 315.048 225.118 320.107 217.591 320.08H189.001L199.662 347.056C200.068 348.1 199.54 349.28 198.495 349.687C198.278 349.769 198.034 349.823 197.79 349.823V349.836Z" fill="#3A5570"/>
<path d="M256.664 362.015C255.891 356.875 257.532 344.506 257.532 344.506H245.99C247.78 354.014 248.621 359.167 246.885 362.015L246.695 365.108L255.321 364.809L256.664 362.015Z" fill="#955646"/>
<path d="M245.205 362.015C244.432 356.875 245.327 344.506 245.327 344.506H235.155C236.945 354.014 237.162 359.167 235.44 362.015L235.25 365.108L243.875 364.809L245.218 362.015H245.205Z" fill="#955646"/>
<path d="M258.211 278.05C263.826 297.824 263.636 344.493 263.636 344.493H225.661L227.017 278.05H258.211Z" fill="#BC792A"/>
<path d="M232.361 222.674C232.361 222.674 232.361 222.647 232.361 222.62C232.361 222.579 232.374 222.538 232.388 222.484C232.7 220.355 232.429 218.117 231.466 216.028C228.821 210.291 222.026 207.782 216.289 210.427C210.945 212.882 208.409 218.944 210.213 224.396C210.213 224.396 210.213 224.424 210.227 224.437C210.294 224.627 210.376 224.817 210.444 224.993C211.271 227.367 210.715 229.008 211.176 230.025C211.678 231.123 213.048 230.188 213.794 232.141C215.258 235.531 216.018 235.857 219.965 235.491C223.952 235.111 225.457 241.973 225.457 241.973L237.908 236.142C230.028 232.29 231.303 229.727 232.374 222.688L232.361 222.674Z" fill="#955646"/>
<path d="M256.664 362.016C251.307 361.921 251.348 365.542 246.899 362.016C246.411 363.06 245.923 363.86 245.461 364.484L245.204 362.016C239.847 361.921 239.887 365.542 235.439 362.016C231.533 370.262 228.318 363.833 226.026 370.275H249.788L251.714 368.512L252.053 370.275H257.532L256.678 362.016H256.664Z" fill="#0D2135"/>
<circle cx="131.757" cy="273.128" r="3.11699" transform="rotate(-3.71368 131.757 273.128)" fill="#D4D698"/>
<path d="M132.723 273.657C132.742 273.519 132.941 272.49 132.885 272.22C132.851 272.051 132.782 271.889 132.684 271.747C132.585 271.604 132.459 271.482 132.313 271.389C132.166 271.296 132.002 271.234 131.831 271.205C131.66 271.177 131.484 271.183 131.316 271.224C131.155 271.254 131.004 271.32 130.874 271.417C130.743 271.514 130.636 271.639 130.561 271.783C130.409 272.04 130.344 272.338 130.376 272.634C130.378 272.671 130.38 272.705 130.382 272.738C130.401 273.017 130.312 273.186 130.339 273.312C130.366 273.439 130.543 273.381 130.579 273.624C130.659 274.057 130.689 274.066 131.135 274.127C131.581 274.187 131.32 275.109 131.32 275.109L133.161 274.715C132.807 274.234 132.653 274.185 132.723 273.657Z" fill="#FFDAC7"/>
<path d="M130.552 272.611C130.55 272.58 130.519 272.558 130.483 272.56C130.447 272.562 130.42 272.589 130.422 272.619L130.457 273.157C130.459 273.188 130.49 273.21 130.525 273.208C130.561 273.206 130.589 273.179 130.587 273.149L130.552 272.611Z" fill="#B24020"/>
<path d="M131.351 272.894L131.342 272.765L130.565 272.815L130.573 272.945L131.351 272.894Z" fill="#B24020"/>
<path d="M130.429 272.222C130.831 272.195 131.314 272.214 131.373 273.12C131.527 273.097 131.497 272.851 131.668 272.757C131.711 272.727 131.76 272.707 131.811 272.7C131.862 272.693 131.914 272.698 131.963 272.715C132.012 272.732 132.057 272.761 132.094 272.799C132.131 272.837 132.159 272.883 132.175 272.934C132.277 273.247 132.327 273.525 132.443 273.672C132.46 273.694 132.483 273.71 132.508 273.719C132.534 273.728 132.561 273.729 132.588 273.723C132.614 273.716 132.638 273.701 132.656 273.681C132.675 273.661 132.687 273.635 132.692 273.608C132.735 273.38 132.802 273.159 132.89 272.946C133.169 272.222 132.901 271.644 132.515 271.345C132.307 271.193 132.066 271.097 131.814 271.067C131.561 271.037 131.306 271.073 131.071 271.173C130.888 271.244 130.723 271.355 130.584 271.497C130.445 271.639 130.336 271.809 130.264 271.997C130.255 272.023 130.253 272.051 130.258 272.079C130.262 272.106 130.273 272.132 130.289 272.154C130.305 272.176 130.327 272.194 130.351 272.206C130.375 272.218 130.402 272.223 130.429 272.222Z" fill="#1D2226"/>
<path fill-rule="evenodd" clip-rule="evenodd" d="M130.843 276.109C130.928 275.862 131.015 275.649 131.091 275.462L131.097 275.448L130.95 275.1C130.927 275.048 130.915 274.991 130.914 274.934C130.913 274.877 130.924 274.82 130.945 274.768C130.967 274.715 130.999 274.667 131.039 274.628C131.079 274.588 131.127 274.557 131.18 274.537L132.726 273.976L133.114 274.598C133.329 274.798 133.611 275.068 133.879 275.411C133.371 275.883 132.704 276.19 131.958 276.239C131.57 276.264 131.194 276.217 130.843 276.109Z" fill="#493D57"/>
<circle cx="130.413" cy="260.419" r="3.11699" transform="rotate(-3.07518 130.413 260.419)" fill="#BAD4D8"/>
<path d="M129.055 259.687C129.042 259.331 129.165 258.984 129.397 258.718C129.63 258.452 129.953 258.288 130.302 258.26C131.342 258.179 131.912 259.641 131.385 260.552C131.224 260.805 131.151 261.105 131.18 261.405C131.208 261.705 131.335 261.986 131.54 262.204L131.515 262.216L130.365 262.981L129.662 262.849C129.662 262.849 130.172 261.452 129.589 261.248C129.152 261.094 129.12 261.085 129.107 260.637C129.11 260.379 128.922 260.423 128.914 260.271C128.906 260.119 129.039 259.982 129.055 259.687Z" fill="#BF7461"/>
<path fill-rule="evenodd" clip-rule="evenodd" d="M129.373 263.359L129.679 262.789C130.075 262.777 130.297 262.559 130.537 262.325C130.743 262.124 130.963 261.91 131.316 261.805C131.366 261.86 131.43 261.924 131.503 261.997C131.721 262.215 132.021 262.514 132.271 262.921C131.796 263.275 131.215 263.497 130.579 263.531C130.156 263.554 129.749 263.492 129.373 263.359Z" fill="#F3BA64"/>
<path fill-rule="evenodd" clip-rule="evenodd" d="M132.882 262.389C132.488 262.184 132.359 261.779 132.232 261.38C132.11 260.997 131.99 260.62 131.637 260.437C131.281 261.104 130.498 260.761 130.618 260.035C130.628 259.993 130.63 259.948 130.622 259.905C130.615 259.862 130.599 259.821 130.575 259.784C130.551 259.747 130.521 259.715 130.484 259.691C130.448 259.666 130.407 259.649 130.364 259.64C130.321 259.632 130.276 259.632 130.234 259.641C130.191 259.65 130.15 259.668 130.114 259.693C130.078 259.718 130.047 259.75 130.024 259.787C130.001 259.825 129.985 259.866 129.978 259.909C129.711 259.831 129.477 259.665 129.315 259.438C129.216 259.3 129.172 259.13 129.191 258.961C129.211 258.793 129.292 258.637 129.42 258.525C129.649 258.327 129.939 258.215 130.242 258.207C131.029 258.165 131.856 258.746 131.681 259.725C132.383 259.105 133.456 259.649 133.575 260.684C133.52 261.325 133.27 261.915 132.882 262.389Z" fill="#61382D"/>
<path d="M110.078 278.928L107.478 247.302H123.434L126.239 280.964H111.299L110.078 278.928Z" fill="#F4F6F8" stroke="#BFBFBF" stroke-width="0.437168"/>
<path d="M110.083 256.919H124.291" stroke="#BFBFBF" stroke-width="0.437168"/>
<path d="M110.958 265.444H125.165" stroke="#BFBFBF" stroke-width="0.437168"/>
<path d="M111.395 273.75H125.602" stroke="#BFBFBF" stroke-width="0.437168"/>
<path d="M107.46 240.088H173.038L173.91 248.395L107.896 248.118L107.46 240.088Z" fill="#004182"/>
<path d="M135.876 256.264H150.112L150.33 258.012H136.036L135.876 256.264Z" fill="#D9D9D9"/>
<path d="M160.28 257.794L160.16 256.482H166.531L166.695 257.794H160.28Z" stroke="#689FBE" stroke-width="0.437168"/>
<path d="M168.227 256.264H170.412L170.631 258.012H168.387L168.227 256.264Z" fill="#D9D9D9"/>
<path d="M161.592 270.909L161.471 269.597H167.843L168.007 270.909H161.592Z" stroke="#689FBE" stroke-width="0.437168"/>
<path d="M169.538 269.379H171.724L171.943 271.127H169.698L169.538 269.379Z" fill="#D9D9D9"/>
<path d="M110.521 258.449H122.98L123.198 260.198H110.681L110.521 258.449Z" fill="#C9CBCC"/>
<path d="M111.395 267.193H123.854L124.072 268.941H111.555L111.395 267.193Z" fill="#C9CBCC"/>
<path d="M111.832 275.062H124.291L124.509 276.811H111.992L111.832 275.062Z" fill="#C9CBCC"/>
<path d="M109.646 253.641H119.549L119.701 255.389H109.757L109.646 253.641Z" fill="#E3E7ED"/>
<path d="M122.98 253.859H120.575L121.887 254.952L122.98 253.859Z" fill="#616365"/>
<path d="M136.123 258.887H152.298L152.516 260.635H136.282L136.123 258.887Z" fill="#D9D9D9"/>
<path d="M136.341 261.51L149.675 261.51L149.894 263.258L136.506 263.258L136.341 261.51Z" fill="#D9D9D9"/>
<path d="M137.188 269.379H153.8L154.019 271.127H137.348L137.188 269.379Z" fill="#D9D9D9"/>
<path d="M137.434 272.002H151.86L152.079 273.75H137.593L137.434 272.002Z" fill="#D9D9D9"/>
<path d="M137.652 274.625H152.925L153.144 276.373H137.817L137.652 274.625Z" fill="#D9D9D9"/>
<path d="M107.46 247.293L174.127 247.083L174.347 252.329H107.9L107.46 247.293Z" fill="white"/>
<path d="M108.1 252.111L107.698 247.511L173.917 247.302L174.119 252.111H108.1Z" stroke="black" stroke-opacity="0.25" stroke-width="0.437168"/>
<rect x="117.952" y="261.947" width="5.68319" height="2.18584" rx="1.09292" fill="#9AD8F3"/>
<rect x="110.958" y="261.947" width="5.68319" height="2.18584" rx="1.09292" fill="#9AD8F3"/>
<rect x="113.456" y="270.253" width="0.24981" height="1.74867" fill="#757779"/>
<rect x="114.455" y="271.002" width="0.24981" height="1.74867" transform="rotate(90 114.455 271.002)" fill="#757779"/>
<rect x="114.33" y="278.122" width="0.24981" height="1.74867" fill="#757779"/>
<rect x="115.329" y="278.872" width="0.24981" height="1.74867" transform="rotate(90 115.329 278.872)" fill="#757779"/>
<path d="M109.778 248.613H129.974L130.107 251.018H109.875L109.778 248.613Z" fill="#0075AE"/>
<path d="M109.646 241.837L112.355 241.837L112.488 244.242H109.743L109.646 241.837Z" fill="white"/>
<path d="M131.811 250.799L131.732 248.832H140.346L140.454 250.799H131.811Z" stroke="#0075AE" stroke-width="0.437168"/>
<path d="M116.204 244.023H122.667L122.761 246.209H116.273L116.204 244.023Z" fill="#195A87"/>
<path d="M131.067 244.023H137.53L137.624 246.209H131.136L131.067 244.023Z" fill="#195A87"/>
<path d="M145.931 244.023H152.394L152.488 246.209H146L145.931 244.023Z" fill="#195A87"/>
<path d="M123.635 244.023H130.098L130.193 246.209H123.704L123.635 244.023Z" fill="#195A87"/>
<path d="M138.499 244.023H144.962L145.057 246.209H138.568L138.499 244.023Z" fill="#195A87"/>
<path d="M153.363 244.023H159.826L159.92 246.209H153.432L153.363 244.023Z" fill="#195A87"/>
<path d="M142.303 250.799L142.224 248.832H155.209L155.317 250.799H142.303Z" stroke="#0075AE" stroke-width="0.437168"/>
<path d="M171.086 240.133C171.914 240.174 172.605 240.798 172.714 241.625L175.969 279.6C175.969 279.939 175.874 280.265 175.698 280.55C175.453 280.699 175.169 280.794 174.884 280.821H112.415C111.588 280.78 110.896 280.156 110.787 279.329L107.532 241.354C107.532 241.015 107.627 240.825 107.804 240.54C108.007 240.296 108.305 240.16 108.617 240.133H171.086ZM171.086 238.777H108.604C107.261 238.764 106.162 239.835 106.149 241.178C106.149 241.286 106.149 241.395 106.162 241.49L109.417 279.465C109.594 280.984 110.869 282.15 112.401 282.177H174.897C176.24 282.191 177.339 281.119 177.352 279.777C177.352 279.668 177.352 279.56 177.339 279.465L174.084 241.49C173.867 239.984 172.619 238.858 171.1 238.777H171.086Z" fill="#5B696B"/>
<circle cx="171.505" cy="256.919" r="0.218584" fill="#D9D9D9"/>
<circle cx="172.161" cy="256.92" r="0.218584" fill="#D9D9D9"/>
<circle cx="172.817" cy="256.92" r="0.218584" fill="#D9D9D9"/>
<circle cx="172.817" cy="270.035" r="0.218584" fill="#D9D9D9"/>
<circle cx="173.472" cy="270.035" r="0.218584" fill="#D9D9D9"/>
<circle cx="174.128" cy="270.035" r="0.218584" fill="#D9D9D9"/>
<path d="M179.47 267.091L171.605 284.373L172.84 284.935L180.705 267.653L179.47 267.091Z" fill="#BC792A"/>
<path d="M198.386 287.543H169.105V285.496C169.105 284.641 169.593 283.868 170.339 283.461L174.191 281.318C174.842 280.952 175.615 280.884 176.32 281.101L180.782 282.458C181.935 282.81 183.142 282.905 184.336 282.742L198.386 280.762V287.543Z" fill="#A96C3F"/>
<path d="M225.836 232.697C227.314 239.953 237.974 239.505 238.273 232.954C239.737 232.168 240.863 231.462 241.758 230.066C242.708 228.587 242.884 226.716 242.667 224.952C242.531 223.908 242.274 222.864 241.731 221.969C240.388 219.758 237.69 218.876 235.56 217.398C234.909 216.951 234.299 216.435 233.811 215.798C232.875 214.577 232.454 213.004 231.451 211.851C230.339 210.576 228.63 209.966 226.962 209.708C225.293 209.45 223.585 209.505 221.903 209.301C220.533 209.139 219.177 208.799 217.793 208.677C214.308 208.379 210.714 209.586 208.11 211.932C206.577 213.316 205.356 215.147 205.112 217.181C204.868 219.215 205.777 221.467 207.581 222.443C209.398 223.42 212.233 222.688 213.019 220.789C214.159 222.701 215.244 221.521 216.613 218.971C216.613 218.971 216.247 221.792 218.336 223.433C219.801 220.043 224.968 221.521 223.53 225.509C221.998 229.93 221.401 231.72 225.836 232.67V232.697Z" fill="#0D2135"/>
<path d="M208.629 287.881C213.566 288.03 217.96 284.761 219.262 280.001C221.052 271.85 222.07 263.563 222.314 255.222C222.49 250.787 218.855 247.003 215.532 247.084C213.864 247.084 207.761 247.396 206.893 255.222C205.822 264.946 205.13 271.104 204.682 274.209C199.908 276.108 195.026 277.736 190.075 279.092C188.746 279.485 187.838 280.692 187.851 282.076V287.881H208.629Z" fill="#D4D698"/>
<path d="M193.493 276.341C193.303 276.26 191.486 276.45 190.319 276.585C189.845 276.64 189.587 277.155 189.818 277.576C189.913 277.752 190.089 277.874 190.279 277.901L194.781 278.701L193.493 276.341Z" fill="#61382D"/>
<path d="M188.53 272.639L185.425 276.626C185.018 277.142 185.262 277.901 185.899 278.091C186.225 278.186 186.591 278.091 186.835 277.847L190.619 274.009" fill="#61382D"/>
<path d="M205.564 271.31L199.122 273.236C197.739 273.656 196.247 273.588 194.89 273.073L190.293 271.31C189.506 271.011 188.611 271.079 187.879 271.513L180.067 276.165C179.511 276.491 179.429 277.264 179.904 277.711C180.175 277.969 180.568 278.037 180.907 277.915L188.923 274.863L192.992 277.86C194.307 278.823 195.989 279.149 197.562 278.728L200.655 277.915L208.494 278.199L205.564 271.31Z" fill="#955646"/>
<path d="M231.37 236.304L223.286 239.559C219.014 241.282 216.085 245.255 215.691 249.826L214.118 268.339L201.573 271.635C202.888 275.703 204.529 280.64 207.079 282.091C216.22 280.884 222.161 279.27 222.161 279.27L224.588 287.164C226.786 293.104 235.601 294.433 241.867 289.591C248.147 284.75 258.603 293.999 260.692 279.46C262.78 264.921 256.284 244.008 249.788 239.505C243.291 234.989 237.107 233.999 231.356 236.318L231.37 236.304Z" fill="#606E30"/>
</g>
<defs>
<clipPath id="clip0_5402_1625">
<rect width="375" height="375" fill="white"/>
</clipPath>
</defs>
</svg>
